<?xml version="1.0" encoding="UTF-8"?>
<svg xmlns="http://www.w3.org/2000/svg" width="1560.338" height="511.0986">
<path d="M 66.553746,466.1224 C 57.474083,456.45755 51.723667,420.34786 48.738779,354.25353 44.426702,258.77125 41.631012,148.39265 42.151877,94.191379 l 0.439672,-45.752285 3.793709,-3.2618 c 5.016037,-4.31275 11.734707,-4.312685 16.750609,1.62e-4 4.498521,3.867983 4.394078,0.597957 2.59493,81.245084 -1.115683,50.01077 -0.251662,97.83979 3.260825,180.50704 2.163957,50.92926 3.551573,67.36164 6.004401,71.10512 3.759485,5.73771 2.470678,7.53869 18.201393,-25.43482 6.532501,-13.69293 9.793744,-18.81534 15.983674,-25.10547 11.9704,-12.16418 25.10882,-14.44256 31.77745,-5.51065 5.07648,6.7994 6.40124,17.45609 6.33877,50.99046 -0.0749,40.1837 0.14272,40.69653 15.08256,35.54955 4.02065,-1.38515 13.53583,-5.64431 21.14485,-9.46478 10.95452,-5.50024 15.19805,-6.94631 20.38404,-6.94631 7.91805,0 8.51745,0.57211 21.75579,20.76495 13.15828,20.07074 14.29556,25.54269 5.4634,26.28674 -6.17898,0.52053 -10.04154,-2.516 -19.54262,-15.36338 -11.94848,-16.15675 -10.91544,-15.97984 -32.06663,-5.49148 -31.4951,15.61769 -45.46207,15.77161 -49.57971,0.54642 -0.86058,-3.18202 -2.13317,-17.4536 -2.82797,-31.7146 -1.28042,-26.28069 -2.02409,-32.21117 -4.42077,-35.254 -1.89789,-2.40957 -2.95363,-2.14724 -7.81268,1.94139 -7.356,6.18966 -12.00312,20.34425 -20.887563,63.62103 -8.008252,39.0088 -13.260015,51.73336 -21.351726,51.73336 -1.765033,0 -4.503075,-1.37732 -6.084535,-3.06071 z m 522.967374,-12.13511 -16.90141,-3.868 -31.11758,1.62374 c -37.36443,1.94971 -48.25534,1.40132 -55.74261,-2.80676 -10.31927,-5.79975 -14.12586,-19.6299 -8.95791,-32.5459 l 2.21007,-5.52351 -4.44874,-3.71397 c -3.68172,-3.07363 -4.29313,-4.33395 -3.54621,-7.3099 1.31262,-5.22987 5.08989,-6.80262 11.92048,-4.96334 5.60089,1.50816 5.69275,1.47266 17.67171,-6.82855 15.31791,-10.61505 25.24036,-15.02794 35.50375,-15.78985 14.04223,-1.04244 20.81393,5.90185 21.98459,22.54488 0.58269,8.28414 0.34697,9.19546 -4.02478,15.56007 -10.03539,14.61004 -30.0878,20.68016 -49.18154,14.88787 -8.72965,-2.64822 -8.6656,-2.66221 -8.6656,1.89335 0,5.02275 6.10748,10.37455 13.13618,11.51082 2.8446,0.45987 13.22418,-0.41119 23.37086,-1.96129 36.82179,-5.62525 41.13215,-5.99599 50.17002,-4.31521 10.49295,1.95136 20.81959,6.9015 28.18248,13.50944 5.29587,4.75288 5.49745,5.20146 3.55704,7.91559 -3.11936,4.36316 -6.73118,4.38911 -25.1208,0.18052 z m -57.59058,-40.19298 c 2.0061,-0.76271 3.80267,-2.78696 4.32675,-4.87507 1.17283,-4.67296 -2.60687,-12.75022 -5.96639,-12.75022 -7.28664,0 -25.95288,9.13175 -25.95288,12.69647 0,2.45286 2.61531,4.48124 6.76056,5.24336 6.3179,1.16157 17.38917,0.99441 20.83196,-0.31454 z m 544.71116,42.35473 c -13.3493,-6.58133 -18.2083,-44.2109 -18.395,-142.45889 -0.1112,-58.45697 0.6754,-72.86641 6.5126,-119.30325 3.534,-28.11365 5.8377,-34.59747 13.9776,-39.33931 5.4961,-3.20174 10.3452,-1.60048 12.5585,4.14706 1.5255,3.96153 1.0273,8.22197 -6.5248,55.79127 -3.7332,23.51524 -3.7559,24.05603 -3.6509,87.21127 0.1076,64.8046 1.6769,94.22136 6.6359,124.39437 1.1,6.69295 2.0106,15.6331 2.0236,19.86699 0.02,6.43739 -0.4685,8.04265 -2.9815,9.80282 -3.7118,2.59984 -4.6763,2.58918 -10.156,-0.11236 z m -335.39655,-1.18316 c -6.29253,-2.71824 -8.49287,-9.06561 -9.82999,-28.35672 -0.61922,-8.93362 -1.88337,-73.81213 -2.80925,-144.17446 -2.02503,-153.89471 -0.89692,-190.442909 6.01388,-194.83718 2.74539,-1.745675 9.12795,-1.164522 13.12195,1.194797 7.05457,4.167232 7.14256,5.007477 4.51714,43.131563 -3.08658,44.8202 -3.04196,129.548 0.0971,184.47049 2.26255,39.5864 3.11083,48.29142 4.80813,49.34041 2.38857,1.47622 7.30979,-6.93403 14.25305,-24.35815 8.44043,-21.18125 13.42203,-29.74286 21.15979,-36.36609 10.71751,-9.17378 15.58813,-6.96065 19.53708,8.87735 2.1211,8.50708 2.48467,15.76726 2.51738,50.26966 0.0349,36.78727 0.24337,40.44137 2.37561,41.63463 3.218,1.80088 6.57501,-0.23344 11.93746,-7.23399 9.49634,-12.39717 15.0733,-17.26241 19.78775,-17.26241 6.64124,0 9.12692,3.54369 14.45286,20.6046 5.20631,16.6777 9.48165,24.46314 13.77706,25.0882 1.77093,0.25771 6.02498,-2.51699 12.12256,-7.90693 15.44399,-13.65168 16.29912,-13.79602 32.69368,-5.51879 7.84061,3.95855 9.54053,4.28 24.45858,4.62515 18.99697,0.43953 23.22782,2.18399 23.22782,9.57727 0,8.09762 -3.22281,9.51808 -19.26337,8.49038 -17.53561,-1.12348 -31.21143,-4.02318 -35.7272,-7.57529 -5.21709,-4.10376 -8.71876,-3.43545 -14.70685,2.8069 -12.86893,13.41537 -19.18904,15.6175 -32.14873,11.20167 -7.58125,-2.58318 -11.18137,-6.76195 -12.44653,-14.44705 -1.58704,-9.64044 -4.16253,-14.49939 -7.66649,-14.46375 -2.45155,0.0249 -4.97478,2.93932 -11.89998,13.74467 -9.91584,15.47167 -17.06009,21.37861 -25.85672,21.37861 -9.34743,0 -12.22824,-7.15997 -14.69664,-36.52687 -0.74917,-8.91304 -1.9661,-23.40328 -2.70428,-32.20052 -1.43523,-17.10435 -3.27712,-24.56839 -6.0627,-24.56839 -2.41299,0 -3.90175,4.30054 -10.06353,29.07042 -16.14812,64.91416 -21.68103,76.03325 -34.9766,70.28982 z m -298.78594,-0.70542 c -1.68406,-0.67657 -3.67513,-2.84297 -4.4246,-4.81422 -3.16065,-8.31312 -4.21854,-39.96206 -3.65938,-109.47657 0.60079,-74.68678 1.14754,-83.36653 7.87292,-124.98375 2.33113,-14.42511 3.22775,-17.34715 6.11979,-19.94366 4.3551,-3.9101 12.01787,-4.14366 14.00702,-0.42692 2.03448,3.80148 1.74168,18.75893 -1.37118,70.044 -3.32369,54.75854 -3.692,78.08602 -2.12053,134.30834 1.11229,39.79461 1.02782,43.03431 -1.24708,47.82832 -1.58926,3.34912 -3.99407,5.79159 -6.89617,7.00416 -2.45078,1.024 -4.62763,1.82326 -4.83742,1.77611 -0.20981,-0.0472 -1.75933,-0.63925 -3.44337,-1.31581 z m 771.36609,-3.59339 c -1.3201,-0.34368 -4.2911,-4.38014 -6.6023,-8.96991 -6.7469,-13.39835 -11.6702,-19.838 -15.1668,-19.838 -1.6948,0 -9.3647,4.03552 -17.0441,8.96782 -19.9568,12.81777 -27.6151,15.7145 -43.2938,16.37586 -14.8018,0.62436 -22.7021,-1.41527 -25.3322,-6.53995 -0.9186,-1.78995 -1.6792,-7.49056 -1.6901,-12.66804 -0.02,-9.22598 -0.1331,-9.52886 -5.6948,-15.19588 -5.0949,-5.19132 -5.5415,-6.16388 -4.3693,-9.51597 1.105,-3.16017 2.1729,-3.797 6.952,-4.14581 5.3819,-0.3928 5.8666,-0.80465 10.3441,-8.78873 8.1006,-14.44465 14.3997,-18.52572 28.5701,-18.50992 9.6378,0.0108 16.1751,2.16948 20.9108,6.90514 5.6365,5.63647 5.5068,11.15371 -0.4454,18.94905 -5.6681,7.42333 -15.0911,12.64704 -26.5352,14.71 -4.8306,0.87079 -9.2326,2.28992 -9.7821,3.15364 -0.5496,0.86372 -1.0085,3.88313 -1.0199,6.70982 -0.019,4.64628 0.4544,5.3379 4.9303,7.20806 9.1533,3.8245 20.8284,-0.66411 47.7814,-18.3701 14.765,-9.69942 17.4721,-11.01153 21.4164,-10.3802 6.2256,0.99645 7.5484,2.40767 10.9173,11.64715 3.3402,9.16092 4.3813,10.19554 8.2017,8.1509 4.4713,-2.39292 6.5187,-6.87888 7.9597,-17.43968 0.7495,-5.49346 1.8575,-10.46379 2.462,-11.04517 0.6046,-0.58138 7.1838,-1.76506 14.6204,-2.63041 7.4366,-0.86534 18.5228,-2.73038 24.6359,-4.14454 14.2654,-3.30002 224.5949,-42.44845 241.7303,-44.99303 2.9746,-0.44174 6.3211,-0.23619 7.4366,0.45678 2.8053,1.74274 2.7546,14.05669 -0.07,16.88088 -2.4514,2.45144 -19.1405,5.86255 -79.705,16.29106 -38.5467,6.6373 -149.518,27.92111 -176.6841,33.88727 -5.334,1.17143 -10.7063,2.86706 -11.9385,3.76804 -1.2788,0.93509 -3.3816,6.53961 -4.8996,13.05853 -3.4963,15.01525 -7.6177,21.97292 -14.6926,24.80375 -5.3777,2.15173 -9.1441,2.49078 -13.9036,1.25159 z m -74.5999,-51.82794 c 7.8373,-3.79397 10.9668,-7.39733 8.7473,-10.07167 -2.7615,-3.32748 -11.3763,-5.08392 -15.5679,-3.1741 -3.5376,1.61187 -7.4471,7.34138 -7.4471,10.91415 0,5.41044 5.9119,6.37656 14.2677,2.33162 z m -866.09864,48.19655 c -7.06479,-1.73946 -13.97752,-3.64345 -15.36163,-4.23109 -7.2813,-3.09142 -6.75746,-20.65241 1.09124,-36.58322 5.91006,-11.99585 19.12851,-26.62022 28.2296,-31.23209 7.11107,-3.60344 19.64824,-5.53131 25.84943,-3.97491 4.36458,1.09544 8.85558,8.14007 8.86235,13.90158 0.004,3.03461 -1.04114,5.11917 -3.55757,7.0986 -4.40971,3.46868 -5.2931,3.47771 -9.58954,0.0982 -5.032,-3.95816 -11.91939,-3.53363 -16.45169,1.01408 -8.94144,8.97187 -16.83671,29.74508 -13.82089,36.36409 1.28117,2.81187 2.36597,3.1841 9.25492,3.17573 10.11437,-0.0122 27.3963,-4.19466 39.26942,-9.50355 8.55402,-3.82482 9.68767,-4.81145 12.54988,-10.9224 7.14687,-15.25887 22.66574,-24.00907 39.73654,-22.40517 24.9841,2.34742 36.01696,18.53247 27.73046,40.68014 -7.91691,21.15982 -29.97154,24.05088 -56.73238,7.43684 l -4.74267,-2.94442 -8.77846,3.68514 c -29.04699,12.19378 -41.34108,13.80796 -63.53901,8.34251 z m 112.17267,-18.67091 c 5.46518,-5.86618 2.24625,-15.52731 -6.2497,-18.75745 -5.16542,-1.96389 -13.54085,-1.51459 -15.90887,0.85344 -5.21182,5.21181 -3.01244,14.772 4.31275,18.74661 5.73846,3.11366 14.5475,2.69773 17.84582,-0.8426 z m 633.45957,7.23556 c -4.5955,-2.84133 -7.8849,-7.30755 -9.1387,-12.4082 -0.4597,-1.86968 -1.7545,-14.64714 -2.8774,-28.39437 -8.107,-99.24565 -7.35961,-202.4071 1.5198,-209.77632 1.652,-1.3711 2.9395,-1.19183 6.8605,0.95521 2.6547,1.45369 6.0378,4.28719 7.5181,6.29666 2.6372,3.57994 2.653,4.27471 0.7856,34.47887 -1.1195,18.10679 -1.8639,52.30371 -1.8043,82.88163 0.1133,58.10008 2.0162,83.06646 8.2813,108.64818 3.98,16.25096 3.5623,18.86815 -3.1107,19.49428 -2.156,0.20231 -5.7714,-0.77687 -8.0342,-2.17594 z M 210.58574,347.3676 c -7.01102,-1.87503 -12.9521,-6.66834 -15.95587,-12.87329 -3.68767,-7.61771 -2.33183,-11.68765 4.66256,-13.99601 9.37725,-3.09478 20.91183,5.4244 23.2633,17.18175 1.55161,7.75809 -3.59872,11.92637 -11.96999,9.68755 z m 679.12319,-15.70892 c -5.95257,-3.05515 -8.08633,-7.31739 -8.11155,-16.203 -0.0529,-18.6096 18.10706,-19.31125 25.11156,-0.97023 1.79022,4.68763 1.90623,6.61444 0.63089,10.47876 -0.85947,2.60424 -2.3501,5.38848 -3.31252,6.18721 -3.34126,2.77301 -9.48013,2.99049 -14.31838,0.50726 z"/>
</svg>