<?xml version="1.0" encoding="UTF-8" standalone="no"?>
<!-- Created with Inkscape (http://www.inkscape.org/) -->
<svg
   xmlns:svg="http://www.w3.org/2000/svg"
   xmlns="http://www.w3.org/2000/svg"
   version="1.0"
   width="480.67999"
   height="139.21001"
   id="svg2">
  <defs
     id="defs4">
    <clipPath
       id="clipPath2676">
      <path
         d="M 0,0 L 1753.465,0 L 1753.465,894.567 L 0,894.567 L 0,0 z"
         id="path2678" />
    </clipPath>
    <clipPath
       id="clipPath2580">
      <path
         d="M 3.661,3.661 L 1749.803,3.661 L 1749.803,890.905 L 3.661,890.905 L 3.661,3.661 z"
         id="path2582" />
    </clipPath>
    <clipPath
       id="clipPath2498">
      <path
         d="M 1580.474,308.053 L 1704.448,308.053 L 1704.448,340.134 L 1580.474,340.134 L 1580.474,308.053 z"
         id="path2500" />
    </clipPath>
    <clipPath
       id="clipPath2482">
      <path
         d="M 3.661,3.661 L 1749.803,3.661 L 1749.803,890.905 L 3.661,890.905 L 3.661,3.661 z"
         id="path2484" />
    </clipPath>
    <clipPath
       id="clipPath2466">
      <path
         d="M 3.661,3.661 L 1749.803,3.661 L 1749.803,890.905 L 3.661,890.905 L 3.661,3.661 z"
         id="path2468" />
    </clipPath>
    <clipPath
       id="clipPath2450">
      <path
         d="M 3.661,3.661 L 1749.803,3.661 L 1749.803,890.905 L 3.661,890.905 L 3.661,3.661 z"
         id="path2452" />
    </clipPath>
    <clipPath
       id="clipPath2434">
      <path
         d="M 3.661,3.661 L 1749.803,3.661 L 1749.803,890.905 L 3.661,890.905 L 3.661,3.661 z"
         id="path2436" />
    </clipPath>
    <clipPath
       id="clipPath2418">
      <path
         d="M 3.661,3.661 L 1749.803,3.661 L 1749.803,890.905 L 3.661,890.905 L 3.661,3.661 z"
         id="path2420" />
    </clipPath>
  </defs>
  <g
     transform="translate(0.340914,-6.5972694)"
     id="layer1">
    <g
       transform="matrix(2.9727639,0,0,2.9727639,-31.796411,-113.43258)"
       id="g2971">
      <g
         transform="matrix(1.25,0,0,-1.25,-1961.6477,468.90763)"
         id="g2494">
        <g
           clip-path="url(#clipPath2498)"
           id="g2496">
          <g
             transform="translate(1635.5828,317.5747)"
             id="g2502">
            <path
               d="M 0,0 C 0,-0.255 -0.12,-0.357 -0.493,-0.357 C -0.927,-0.357 -0.927,3.95 -6.122,3.95 C -7.958,3.95 -10.562,2.743 -10.562,-2.251 C -10.562,-4.956 -9.183,-8.551 -5.979,-8.551 C -2.43,-8.551 -2.368,-6.894 -2.368,-5.745 C -2.368,-2.667 -4.718,-4.009 -4.718,-3.26 C -4.718,-2.687 -4.086,-2.844 -3.751,-2.844 C -2.823,-2.844 -1.915,-2.923 -0.985,-2.923 C -0.259,-2.923 0.434,-2.844 1.147,-2.844 C 1.246,-2.844 1.364,-2.923 1.364,-3.12 C 1.364,-3.972 0,-2.903 0,-5.433 C 0,-6.243 0.06,-6.794 0.06,-7.072 C 0.06,-7.388 0.039,-7.486 -0.136,-7.584 C -2.011,-8.612 -4.204,-9.522 -6.359,-9.522 C -12.145,-9.522 -13.035,-4.462 -13.035,-2.903 C -13.035,0.416 -11.001,4.78 -6.023,4.78 C -3.276,4.78 -1.617,3.495 -1.085,3.495 C -0.65,3.495 -0.611,4.051 -0.293,4.051 C 0,4.051 0,3.614 0,3.297 L 0,0 z"
               id="path2504"
               style="fill:#231f20;fill-opacity:1;fill-rule:nonzero;stroke:none" />
          </g>
          <g
             transform="translate(1644.8849,316.1519)"
             id="g2506">
            <path
               d="M 0,0 C 0,-0.493 0.73,-0.493 1.322,-0.493 C 4.325,-0.493 4.445,0.613 4.445,1.778 C 4.445,3.714 3.338,5.173 1.342,5.173 C 0.614,5.173 0,5.173 0,3.988 L 0,0 z M -2.43,3.535 C -2.43,5.751 -4.583,5.018 -4.583,5.73 C -4.583,5.93 -4.387,6.024 -4.146,6.024 C -3.238,6.024 -3.081,5.946 -1.837,5.946 C -0.515,5.946 0.828,6.024 2.154,6.024 C 6.477,6.024 6.875,3.241 6.875,2.335 C 6.875,1.066 6.302,0.337 5.728,-0.136 C 5.155,-0.591 4.58,-0.768 4.58,-0.966 C 4.58,-1.086 6.26,-3.951 7.683,-6.439 C 7.86,-6.753 8.237,-6.753 8.394,-6.753 C 8.593,-6.753 8.788,-6.638 8.983,-6.638 C 9.164,-6.638 9.282,-6.753 9.282,-6.912 C 9.282,-7.522 7.98,-7.956 7.19,-7.956 C 5.627,-7.956 4.997,-6.715 4.384,-5.569 L 2.725,-2.448 C 2.268,-1.581 1.918,-1.401 0.928,-1.401 C -0.121,-1.401 0,-1.537 0,-2.23 L 0,-5.649 C 0,-7.761 1.955,-6.953 1.955,-7.662 C 1.955,-7.837 1.797,-7.956 1.342,-7.956 C 1.005,-7.956 0.473,-7.879 -0.358,-7.879 C -1.42,-7.879 -2.41,-7.956 -3.399,-7.956 C -3.615,-7.956 -4.03,-8.017 -4.03,-7.622 C -4.03,-6.989 -2.43,-7.642 -2.43,-5.153 L -2.43,3.535 z"
               id="path2508"
               style="fill:#231f20;fill-opacity:1;fill-rule:nonzero;stroke:none" />
          </g>
          <g
             transform="translate(1664.1227,308.9013)"
             id="g2510">
            <path
               d="M 0,0 C 3.397,0.061 4.501,2.71 4.501,5.986 C 4.501,10.349 2.092,12.642 -0.455,12.605 C -3.795,12.544 -4.781,9.818 -4.781,6.955 C -4.781,4.072 -3.537,-0.057 0,0 M 0.137,13.454 C 3.99,13.495 6.932,10.945 6.932,6.758 C 6.932,3.995 5.727,-0.849 -0.574,-0.849 C -4.545,-0.849 -7.211,1.816 -7.211,5.83 C -7.211,10.155 -4.583,13.413 0.137,13.454"
               id="path2512"
               style="fill:#231f20;fill-opacity:1;fill-rule:nonzero;stroke:none" />
          </g>
          <g
             transform="translate(1688.5905,315.4017)"
             id="g2514">
            <path
               d="M 0,0 C 0,-4.007 -1.124,-7.349 -6.576,-7.349 C -10.269,-7.349 -12.245,-5.627 -12.245,-1.799 L -12.245,4.64 C -12.245,6.342 -14.297,5.707 -14.297,6.459 C -14.297,6.715 -14.04,6.774 -13.884,6.774 C -13.627,6.774 -12.146,6.697 -11.157,6.697 C -10.152,6.697 -8.75,6.774 -8.373,6.774 C -8.196,6.774 -8.155,6.619 -8.155,6.501 C -8.155,5.827 -9.816,6.873 -9.816,3.636 L -9.816,-0.65 C -9.816,-3.672 -9.025,-6.182 -5.489,-6.182 C -1.56,-6.182 -1.047,-3.06 -1.047,0.278 L -1.047,4.186 C -1.047,6.459 -3.475,5.848 -3.475,6.558 C -3.475,6.873 -3.14,6.774 -2.881,6.774 C -2.309,6.735 -1.777,6.697 -1.223,6.697 C -0.573,6.697 0.042,6.735 1.028,6.774 C 1.266,6.774 1.382,6.735 1.382,6.517 C 1.382,5.986 0,6.697 0,4.464 L 0,0 z"
               id="path2516"
               style="fill:#231f20;fill-opacity:1;fill-rule:nonzero;stroke:none" />
          </g>
          <g
             transform="translate(1697.5963,310.9011)"
             id="g2518">
            <path
               d="M 0,0 C 0,-2.473 1.994,-1.722 1.994,-2.412 C 1.994,-2.747 1.797,-2.706 1.519,-2.706 C 0.138,-2.706 -0.732,-2.628 -1.168,-2.628 C -1.957,-2.628 -3.477,-2.706 -3.595,-2.706 C -3.655,-2.706 -4.011,-2.747 -4.011,-2.412 C -4.011,-1.841 -2.428,-2.271 -2.428,0.195 L -2.428,8.888 C -2.428,10.981 -4.485,10.169 -4.485,10.899 C -4.485,11.018 -4.404,11.275 -3.933,11.275 C -3.795,11.275 -2.706,11.197 -1.206,11.197 C -0.928,11.197 0.474,11.254 1.876,11.275 C 4.406,11.316 6.852,10.328 6.852,7.445 C 6.852,4.976 5.015,3.473 2.666,3.473 C 0.729,3.473 0.631,3.966 0.631,4.048 C 0.631,4.182 0.67,4.423 0.905,4.423 C 1.066,4.423 1.401,4.307 1.835,4.307 C 4.226,4.307 4.406,6.537 4.421,7.047 C 4.442,7.563 4.263,10.446 1.203,10.446 C 0.314,10.446 0,10.053 0,9.165 L 0,0 z"
               id="path2520"
               style="fill:#231f20;fill-opacity:1;fill-rule:nonzero;stroke:none" />
          </g>
          <g
             transform="translate(1626.6285,329.1945)"
             id="g2522">
            <path
               d="M 0,0 C 0,-1.881 0.514,-2.431 2.431,-2.431 C 4.364,-2.431 5.373,-1.148 5.373,0.767 C 5.373,1.953 4.801,3.728 1.203,3.728 C 0.041,3.728 0,3.234 0,2.208 L 0,0 z M 0,5.746 C 0,4.779 0.196,4.695 1.343,4.615 L 2.53,4.615 C 4.032,4.615 4.601,5.368 4.601,6.831 C 4.601,8.647 3.142,9.91 1.382,9.91 C 0.041,9.91 0,9.161 0,8.033 L 0,5.746 z M -2.428,7.856 C -2.428,10.581 -4.521,9.496 -4.521,10.461 C -4.521,10.779 -4.286,10.761 -4.186,10.761 C -4.05,10.761 -3.909,10.682 -3.004,10.682 C -1.322,10.682 0.355,10.761 2.016,10.761 C 6.855,10.761 6.872,7.835 6.872,7.364 C 6.872,6.121 6.122,5.032 4.721,4.577 L 4.721,4.538 C 7.133,3.926 7.88,2.861 7.88,1.081 C 7.88,-1.526 6.064,-3.224 2.844,-3.224 C -0.098,-3.224 -1.088,-3.144 -2.073,-3.144 C -2.546,-3.144 -3.061,-3.224 -3.473,-3.224 C -3.929,-3.224 -4.127,-3.183 -4.127,-2.907 C -4.127,-2.254 -2.428,-2.787 -2.428,-0.873 L -2.428,7.856 z"
               id="path2524"
               style="fill:#231f20;fill-opacity:1;fill-rule:nonzero;stroke:none" />
          </g>
          <g
             transform="translate(1646.7737,326.6808)"
             id="g2526">
            <path
               d="M 0,0 C 3.399,0.061 4.505,2.708 4.505,5.989 C 4.505,10.349 2.096,12.64 -0.453,12.6 C -3.791,12.544 -4.78,9.818 -4.78,6.954 C -4.78,4.068 -3.534,-0.057 0,0 M 0.139,13.453 C 3.99,13.491 6.935,10.944 6.935,6.757 C 6.935,3.991 5.729,-0.849 -0.573,-0.849 C -4.542,-0.849 -7.211,1.82 -7.211,5.827 C -7.211,10.148 -4.582,13.412 0.139,13.453"
               id="path2528"
               style="fill:#231f20;fill-opacity:1;fill-rule:nonzero;stroke:none" />
          </g>
          <g
             transform="translate(1663.2261,329.1945)"
             id="g2530">
            <path
               d="M 0,0 C 0,-1.881 0.513,-2.431 2.431,-2.431 C 4.366,-2.431 5.373,-1.148 5.373,0.767 C 5.373,1.953 4.798,3.728 1.205,3.728 C 0.04,3.728 0,3.234 0,2.208 L 0,0 z M 0,5.746 C 0,4.779 0.197,4.695 1.342,4.615 L 2.529,4.615 C 4.03,4.615 4.603,5.368 4.603,6.831 C 4.603,8.647 3.139,9.91 1.385,9.91 C 0.04,9.91 0,9.161 0,8.033 L 0,5.746 z M -2.428,7.856 C -2.428,10.581 -4.523,9.496 -4.523,10.461 C -4.523,10.779 -4.287,10.761 -4.187,10.761 C -4.047,10.761 -3.909,10.682 -3.004,10.682 C -1.323,10.682 0.355,10.761 2.014,10.761 C 6.854,10.761 6.874,7.835 6.874,7.364 C 6.874,6.121 6.124,5.032 4.722,4.577 L 4.722,4.538 C 7.13,3.926 7.882,2.861 7.882,1.081 C 7.882,-1.526 6.064,-3.224 2.845,-3.224 C -0.099,-3.224 -1.087,-3.144 -2.074,-3.144 C -2.548,-3.144 -3.06,-3.224 -3.475,-3.224 C -3.931,-3.224 -4.128,-3.183 -4.128,-2.907 C -4.128,-2.254 -2.428,-2.787 -2.428,-0.873 L -2.428,7.856 z"
               id="path2532"
               style="fill:#231f20;fill-opacity:1;fill-rule:nonzero;stroke:none" />
          </g>
          <g
             transform="translate(1676.7197,330.023)"
             id="g2534">
            <path
               d="M 0,0 C -0.06,0.272 -0.257,0.845 0.235,0.845 C 0.551,0.845 0.59,0.669 0.672,0.412 C 1.301,-1.485 2.529,-3.281 4.717,-3.281 C 6.258,-3.281 7.444,-2.334 7.444,-0.751 C 7.444,0.926 6.2,1.183 3.021,2.587 C 1.324,3.334 0.157,4.106 0.157,6.182 C 0.157,8.451 1.736,10.11 4.047,10.11 C 5.666,10.11 6.494,9.341 7.089,9.341 C 7.346,9.341 7.841,9.655 8.097,9.655 C 8.393,9.655 8.334,9.359 8.369,8.904 L 8.589,6.257 C 8.631,5.823 8.568,5.587 8.136,5.587 C 7.682,5.587 7.385,9.259 3.986,9.259 C 2.683,9.259 1.797,8.512 1.797,7.186 C 1.797,5.864 2.882,5.607 5.528,4.442 C 7.642,3.514 8.943,2.664 8.943,0.153 C 8.943,-2.432 7.129,-4.191 4.542,-4.191 C 3.336,-4.191 2.331,-3.717 1.182,-3.462 C 0.69,-3.342 0.71,-3.183 0.61,-2.709 L 0,0 z"
               id="path2536"
               style="fill:#231f20;fill-opacity:1;fill-rule:nonzero;stroke:none" />
          </g>
          <g
             transform="translate(1696.4091,337.7236)"
             id="g2538">
            <path
               d="M 0,0 C 0,0.948 -0.198,1.044 -1.008,1.044 L -2.665,1.044 C -4.899,1.044 -4.305,-1.539 -5.193,-1.539 C -5.611,-1.539 -5.491,-1.107 -5.453,-0.851 L -5.136,1.758 C -5.116,1.954 -5.116,2.232 -4.818,2.232 C -2.981,2.232 -1.659,2.152 1.226,2.152 C 4.107,2.152 5.433,2.232 7.27,2.232 C 7.564,2.232 7.564,1.954 7.585,1.758 L 7.802,-0.061 C 7.839,-0.295 8.058,-1.065 7.545,-1.065 C 6.756,-1.065 7.385,1.126 5.115,1.044 L 3.436,1.044 C 2.629,1.044 2.431,0.948 2.431,0 L 2.431,-8.93 C 2.431,-11.356 4.958,-10.783 4.958,-11.337 C 4.958,-11.81 4.565,-11.754 3.989,-11.754 C 3.201,-11.754 2.549,-11.673 1.226,-11.673 C -0.098,-11.673 -0.751,-11.754 -1.538,-11.754 C -1.895,-11.754 -2.23,-11.773 -2.23,-11.337 C -2.23,-10.57 0,-11.518 0,-9.163 L 0,0 z"
               id="path2540"
               style="fill:#231f20;fill-opacity:1;fill-rule:nonzero;stroke:none" />
          </g>
          <path
             d="M 1611.668,339.568 L 1580.474,339.568 L 1580.474,308.373 L 1611.668,308.373 L 1611.668,339.568 z"
             id="path2542"
             style="fill:#231f20;fill-opacity:1;fill-rule:nonzero;stroke:none" />
        </g>
      </g>
    </g>
  </g>
</svg>
