<?xml version="1.0" encoding="utf-8"?>
<!-- Generator: Adobe Illustrator 22.1.0, SVG Export Plug-In . SVG Version: 6.00 Build 0)  -->
<svg version="1.1" id="Layer_1" xmlns="http://www.w3.org/2000/svg" xmlns:xlink="http://www.w3.org/1999/xlink" x="0px" y="0px"
	 viewBox="0 0 104 40" style="enable-background:new 0 0 104 40;" xml:space="preserve">
<style type="text/css">
	.st0{clip-path:url(#SVGID_2_);fill:#4F240E;}
	.st1{clip-path:url(#SVGID_2_);fill:#E31B4D;}
	.st2{clip-path:url(#SVGID_2_);fill:#E31D4E;}
</style>
<g>
	<defs>
		<rect id="SVGID_1_" y="0.7" width="104" height="37.7"/>
	</defs>
	<clipPath id="SVGID_2_">
		<use xlink:href="#SVGID_1_"  style="overflow:visible;"/>
	</clipPath>
	<path class="st0" d="M11.2,19.4c1.3,0,2.3-1,2.3-2.3c0-1.3-0.9-2.3-2.3-2.3c-1.3,0-2.3,1-2.3,2.3C8.9,18.4,9.8,19.4,11.2,19.4
		L11.2,19.4z M4.1,29.9c1.7,0.6,3.5,1.1,5.4,1.1c1.6,0,3.3-0.3,3.3-2.2c0-2-2.1-2.5-4.3-2.5c-1.3,0-2.5,0.2-3.8,0.3l0.7-1.5
		c-3.3-1.7-5.2-4.4-5.2-8.4c0-4.1,3.1-9.3,10.1-9.3c1.8,0,3.1,0.3,4.3,0.7l6.6-1.4l-2,3.9c1.6,1.6,2.4,3.7,2.4,6
		c0,3.2-1.3,5.3-3.8,7c2.4,1.4,3.7,3.5,3.7,6.3c0,5.4-4.9,8.3-12.1,8.3c-4.4,0-7.2-1-9-1.6L4.1,29.9L4.1,29.9z"/>
	<path class="st0" d="M47.9,30.3V16.5c0-0.9-0.5-1.6-1.7-1.6c-1.2,0-1.7,0.9-1.7,1.7v13l-8.3,0.7V16.6c0-1-0.6-1.7-1.8-1.7
		c-1,0-1.6,0.6-1.6,1.7v13l-8.3,0.7V8l7.6-0.7v3.5h0.1c1.6-2.2,3.6-3.5,6.5-3.5c2.3,0,3.9,0.7,5.2,2.3c1.3-1.4,3-2.3,5-2.3
		c4.6,0,7.3,3.4,7.3,7.8v14.5L47.9,30.3L47.9,30.3z"/>
	<path class="st0" d="M70.1,19.4c1.4,0,2.3-1,2.3-2.3c0-1.3-0.9-2.3-2.3-2.3c-1.4,0-2.3,1-2.3,2.3C67.8,18.4,68.7,19.4,70.1,19.4
		L70.1,19.4z M63,29.9c1.7,0.6,3.5,1.1,5.5,1.1c1.6,0,3.4-0.3,3.4-2.2c0-2-2.1-2.5-4.4-2.5c-1.3,0-2.6,0.2-3.9,0.3l0.7-1.5
		c-3.3-1.7-5.2-4.4-5.2-8.4c0-4.1,3.1-9.2,10.2-9.3c1.9,0,3.2,0.2,4.3,0.5c1.2,0.3,3.2,1.1,4.7,2.7c1.3,1.3,2.5,3.7,2.5,6
		c0,3.2-1.3,5.3-3.8,7c2.4,1.4,3.7,3.5,3.7,6.3c0,5.4-4.9,8.3-12.2,8.3c-4.4,0-7.3-1-9.1-1.6L63,29.9L63,29.9z"/>
	<path class="st1" d="M79.1,9.9l2.1-4.1l-6.7,1.4C75.7,7.4,77.5,8.2,79.1,9.9C79.1,9.8,79.1,9.8,79.1,9.9L79.1,9.9L79.1,9.9z"/>
	<path class="st2" d="M87.1,7.5c-0.4,0.4-1.1,0.6-1.8,0.6c-1.4,0-2.6-1.1-2.6-2.7C82.7,4,84,3,85.4,3c0.6,0,1.2,0.2,1.7,0.6L86.7,4
		c-0.3-0.3-0.8-0.5-1.4-0.5c-1.2,0-2.1,0.9-2.1,2.1c0,1.1,0.8,2,1.9,2c0.5,0,1.1-0.2,1.5-0.5L87.1,7.5L87.1,7.5z"/>
	<path class="st2" d="M88.2,5.6c0,1.1,0.9,2,2,2c1.1,0,2-1,2-2c0-1.1-0.9-2-2-2C89.1,3.5,88.2,4.5,88.2,5.6L88.2,5.6z M92.7,5.6
		c0,1.3-1.1,2.6-2.6,2.6c-1.5,0-2.6-1.3-2.6-2.6S88.7,3,90.2,3C91.6,3,92.7,4.2,92.7,5.6L92.7,5.6z"/>
	<polygon class="st2" points="94.3,8.1 93.8,8.2 93.8,1 94.3,0.9 94.3,8.1 	"/>
	<path class="st2" d="M95.9,5.6c0,1.1,0.9,2,2,2c1.1,0,2-1,2-2c0-1.1-0.9-2-2-2C96.8,3.5,95.9,4.5,95.9,5.6L95.9,5.6z M100.5,5.6
		c0,1.3-1.1,2.6-2.6,2.6c-1.5,0-2.6-1.3-2.6-2.6S96.4,3,97.9,3C99.4,3,100.5,4.2,100.5,5.6L100.5,5.6z"/>
	<path class="st2" d="M102,4.1L102,4.1c0.4-0.9,0.9-1.1,1.9-1.1l-0.2,0.6c-0.1,0-0.1,0-0.2,0c-0.6,0-1.4,0.8-1.4,2v2.5l-0.6,0.1V3.1
		L102,3V4.1L102,4.1z"/>
</g>
</svg>
