<svg version="1.1" id="HD_x5F_Logo_x5F_color_x5F_4C" xmlns="http://www.w3.org/2000/svg" xmlns:xlink="http://www.w3.org/1999/xlink" x="0px" y="0px" style="enable-background:new 0 0 328.8 85;" xml:space="preserve" viewBox="27.7 27.7 272.8 29.62">
<style type="text/css">
	.st0{fill:#004077;}
	.st1{fill:#009E3D;}
	.st2{fill:#009FE3;}
	.st3{fill:#003330;}
	.st4{fill:#FEC700;}
</style><style class="darkreader darkreader--sync" media="screen"/>
<g>
	<path class="st0" d="M63.6,29.1c0-0.4-0.3-0.7-0.7-0.7h-5.2c-0.4,0-0.7,0.3-0.7,0.7v10.1H45.9v6.6h11.1l0,10.1   c0,0.4,0.3,0.7,0.7,0.7h5.2c0.4,0,0.7-0.3,0.7-0.7L63.6,29.1z"/>
	<path class="st1" d="M45.9,39.2h-6.6c0,0,0-8.2,0-8.2c0-1.8,1.5-3.3,3.3-3.3c1.8,0,3.3,1.5,3.3,3.3c0,0,0,0,0,0V39.2z"/>
	<path class="st2" d="M45.9,45.8h-6.6l0,10.1c0,0.4,0.3,0.7,0.7,0.7h5.2c0.4,0,0.7-0.3,0.7-0.7V45.8z"/>
	<path class="st0" d="M186.6,51c0-0.4-0.3-0.7-0.7-0.7h-12.6l0-21.3c0-0.4-0.3-0.7-0.7-0.7h-5.2c-0.4,0-0.7,0.3-0.7,0.7V56   c0,0.4,0.3,0.7,0.7,0.7h18.5c0.4,0,0.7-0.3,0.7-0.7V51z"/>
	<path class="st0" d="M120.2,28.3h-11c-0.4,0-0.7,0.3-0.7,0.7V56c0,0.4,0.3,0.7,0.7,0.7H120c8.7,0,14.6-6,14.6-14.2   C134.7,34.1,128.8,28.3,120.2,28.3 M127.8,42.6c0,4.8-3.3,8.1-8.1,8.1l-4.5,0V34.4h4.5C124.3,34.4,127.8,37.5,127.8,42.6"/>
	<path class="st0" d="M103.2,29.1c0-0.4-0.3-0.7-0.7-0.7h-5.2c-0.4,0-0.7,0.3-0.7,0.7V56c0,0.4,0.3,0.7,0.7,0.7h5.2   c0.4,0,0.7-0.3,0.7-0.7V29.1z"/>
	<path class="st0" d="M90.7,28.3H69.4c-0.4,0-0.7,0.3-0.7,0.7v5c0,0.4,0.3,0.7,0.7,0.7h21.2c0.4,0,0.7-0.3,0.7-0.7v-5   C91.4,28.7,91.1,28.3,90.7,28.3"/>
	<path class="st0" d="M90.7,39.3H69.4c-0.4,0-0.7,0.3-0.7,0.7v5c0,0.4,0.3,0.7,0.7,0.7h21.2c0.4,0,0.7-0.3,0.7-0.7v-5   C91.4,39.6,91.1,39.3,90.7,39.3"/>
	<path class="st0" d="M91.4,51c0-0.4-0.3-0.7-0.7-0.7H69.4c-0.4,0-0.7,0.3-0.7,0.7v5c0,0.4,0.3,0.7,0.7,0.7l21.2,0   c0.4,0,0.7-0.3,0.7-0.7V51z"/>
	<path class="st0" d="M160.8,28.3h-21.2c-0.4,0-0.7,0.3-0.7,0.7v5c0,0.4,0.3,0.7,0.7,0.7h21.2c0.4,0,0.7-0.3,0.7-0.7v-5   C161.5,28.7,161.2,28.3,160.8,28.3"/>
	<path class="st0" d="M160.8,39.3h-21.2c-0.4,0-0.7,0.3-0.7,0.7v5c0,0.4,0.3,0.7,0.7,0.7l21.2,0c0.4,0,0.7-0.3,0.7-0.7v-5   C161.5,39.6,161.2,39.3,160.8,39.3"/>
	<path class="st0" d="M161.5,51c0-0.4-0.3-0.7-0.7-0.7h-21.2c-0.4,0-0.7,0.3-0.7,0.7v5c0,0.4,0.3,0.7,0.7,0.7l21.2,0   c0.4,0,0.7-0.3,0.7-0.7V51z"/>
	<path class="st0" d="M210.6,41.8c2.2-1.4,3.3-3.4,3.3-6c0-3.6-2.8-7.5-9.4-7.5h-12.8c-0.4,0-0.7,0.3-0.7,0.7V56   c0,0.4,0.3,0.7,0.7,0.7h14c5.1,0,9.5-3,9.5-8C215.3,45.6,214,43.3,210.6,41.8 M197.3,34.2l7.1,0c1.7,0,3,1.2,3,2.7   c0,1.5-1.2,2.7-3,2.7h-7.1V34.2z M205.3,50.8h-8v-5.6h8c2.1,0,3.2,1.5,3.2,2.8C208.5,49.3,207.4,50.8,205.3,50.8"/>
	<path class="st0" d="M300.5,40.6c0-0.4-0.3-0.7-0.7-0.7H288c-0.4,0-0.7,0.3-0.7,0.7V45c0,0.4,0.3,0.7,0.7,0.7h6v3.9   c-1.2,0.9-3.4,1.6-5.5,1.6c-4.7,0-8.4-3.6-8.4-8.6c0-4.9,3.9-8.5,8-8.5c2.6,0,4.6,0.5,6.8,2.3c0.1,0.1,0.3,0.2,0.5,0.2   c0.2,0,0.4-0.1,0.5-0.3l3.1-4c0.2-0.2,0.2-0.4,0.2-0.5c0-0.2-0.2-0.4-0.3-0.5c-3.1-2.5-6.1-3.3-10.6-3.3c-8.1,0-14.9,6.2-14.9,14.7   c0,8.5,6.2,14.6,14.9,14.6c6.3,0,10.3-3,11.4-3.9c0.5-0.4,0.8-1,0.8-1.7V40.6z"/>
	<path class="st0" d="M241.9,29.1c0-0.4-0.3-0.7-0.7-0.7h-21.2c-0.4,0-0.7,0.3-0.7,0.7v5c0,0.4,0.3,0.7,0.7,0.7h21.2   c0.4,0,0.7-0.3,0.7-0.7V29.1z"/>
	<path class="st0" d="M241.9,40c0-0.4-0.3-0.7-0.7-0.7h-21.2c-0.4,0-0.7,0.3-0.7,0.7v5c0,0.4,0.3,0.7,0.7,0.7l21.2,0   c0.4,0,0.7-0.3,0.7-0.7V40z"/>
	<path class="st0" d="M241.9,51c0-0.4-0.3-0.7-0.7-0.7h-21.2c-0.4,0-0.7,0.3-0.7,0.7v5c0,0.4,0.3,0.7,0.7,0.7l21.2,0   c0.4,0,0.7-0.3,0.7-0.7V51z"/>
	<path class="st0" d="M271.4,56.7c0.2,0,0.5-0.1,0.6-0.3c0.1-0.2,0.1-0.5,0-0.7l-7.3-10.4c3.7-1.3,5.6-4.3,5.6-8c0-3.6-2.2-9-8.9-9   h-13.6c-0.4,0-0.7,0.3-0.7,0.7V56c0,0.4,0.3,0.7,0.7,0.7h5.2c0.4,0,0.7-0.3,0.7-0.7V45.7h3.6l7,10.2c0.3,0.5,0.9,0.8,1.4,0.8H271.4   z M253.7,34.2l7.4,0c1.7,0,2.9,1.5,2.9,3c0,1.5-1.1,2.9-2.9,2.9h-7.4L253.7,34.2z"/>
	<rect x="39.2" y="39.2" class="st3" width="6.6" height="6.6"/>
	<path class="st4" d="M39.2,39.2v6.6c0,0-8.2,0-8.2,0c-1.8,0-3.3-1.5-3.3-3.3c0-1.8,1.5-3.3,3.3-3.3c0,0,0,0,0,0H39.2z"/>
</g>
</svg>