<svg xmlns="http://www.w3.org/2000/svg" width="269" height="45" viewBox="0 0 269 45" fill="none"><g clip-path="url(#clip0_119_248)"><path d="M65.7166 23.2903L65.1724 20.3593C65.0453 19.6711 64.852 18.7026 64.5875 17.4639L61.9937 5.56147L61.0527 1.5498C62.3887 1.57019 63.4703 1.58039 64.2976 1.58039C65.2335 1.58039 66.332 1.58039 67.5425 1.5498C67.8324 3.27783 68.0511 4.54709 68.2291 5.35758L69.5617 11.7752C69.8363 13.1583 70.1432 14.8422 70.4822 16.8268L70.9908 14.5941L72.8777 7.23342L74.1798 1.5498C75.631 1.57019 76.8601 1.58039 77.8671 1.58039C78.9555 1.58039 80.1813 1.58039 81.5342 1.5498L82.5514 8.25291L83.9399 16.7911L84.5604 14.4514C84.6722 14.0487 84.7943 13.6409 84.9215 13.2229C85.0486 12.8049 85.3131 11.9893 85.72 10.7557L87.6577 4.63884L88.5631 1.5498H91.7367H94.8952L88.736 20.0585L87.7493 23.2903C86.1625 23.2699 84.774 23.2597 83.5838 23.2597C82.3361 23.2597 80.9544 23.2699 79.4387 23.2903L79.0725 21.1086L77.6993 13.5134C77.6281 13.0547 77.562 12.5857 77.5009 12.1015C77.4399 11.6172 77.3636 10.8679 77.2568 9.8484L76.6821 12.3155C76.5397 12.8661 76.3973 13.4268 76.2498 13.9875L73.7068 23.2903C72.1047 23.2903 70.7772 23.2597 69.7142 23.2597C68.6513 23.2597 67.2526 23.2699 65.7166 23.2903Z" fill="#1F4778" stroke="#1F4778" stroke-width="0.86" stroke-miterlimit="10"></path><path d="M112.508 18.4833C112.371 19.1204 112.101 20.6598 111.709 23.1015C110.484 23.3462 109.451 23.5042 108.612 23.5858C107.773 23.6673 106.929 23.7081 106.069 23.7081C104.904 23.7139 103.741 23.6253 102.59 23.443C101.627 23.3036 100.698 22.9873 99.8488 22.5102C99.1028 22.0877 98.4463 21.5232 97.9162 20.8485C97.3751 20.1425 96.9729 19.3398 96.7311 18.4833C96.4606 17.5699 96.3236 16.6222 96.3242 15.6695C96.3255 14.2994 96.6022 12.9437 97.138 11.6833C97.5839 10.5126 98.3003 9.46453 99.2284 8.62485C100.081 7.89047 101.087 7.35741 102.173 7.06504C103.287 6.75758 104.436 6.60156 105.591 6.60117C106.757 6.59675 107.919 6.73889 109.049 7.02426C110.087 7.27457 111.045 7.781 111.837 8.49741C112.563 9.14653 113.123 9.96125 113.469 10.8728C113.796 11.7868 113.96 12.7514 113.952 13.7223C113.945 14.4069 113.875 15.0894 113.744 15.7612H102.605C102.605 15.9294 102.605 16.0875 102.605 16.22C102.569 16.711 102.663 17.2029 102.878 17.6459C103.092 18.0889 103.419 18.4674 103.826 18.7432C104.72 19.3056 105.762 19.5878 106.817 19.5537C107.619 19.5433 108.419 19.4614 109.207 19.309C110.321 19.0894 111.422 18.8138 112.508 18.4833ZM102.733 13.3349H107.976C107.976 13.1547 107.976 13.0018 107.976 12.8761C107.996 12.3942 107.904 11.9144 107.707 11.4743C107.533 11.1012 107.237 10.7991 106.868 10.6179C106.482 10.4318 106.059 10.3393 105.632 10.3478C105.319 10.3458 105.008 10.3958 104.711 10.4956C104.418 10.5949 104.146 10.7469 103.908 10.9442C103.674 11.1364 103.473 11.3653 103.312 11.6221C103.166 11.8531 103.048 12.1014 102.961 12.3613C102.866 12.6811 102.79 13.0061 102.733 13.3349Z" fill="#1F4778" stroke="#1F4778" stroke-width="0.86" stroke-miterlimit="10"></path><path d="M116.007 23.29C116.312 20.8772 116.546 18.2147 116.709 15.3024C116.872 12.39 116.969 9.63235 116.999 7.02927C118.271 7.04966 119.369 7.05985 120.295 7.05985C121.363 7.05985 122.395 7.05985 123.382 7.02927L123.224 9.19567C123.509 8.86807 123.811 8.55664 124.13 8.26284C124.42 8.00689 124.737 7.78301 125.076 7.59508C125.456 7.38249 125.859 7.2116 126.276 7.08534C126.729 6.93868 127.194 6.82957 127.664 6.7591C128.188 6.67608 128.717 6.63517 129.246 6.63676C129.997 6.63714 130.746 6.72091 131.479 6.88654C132.12 7.01724 132.735 7.25319 133.3 7.58488C133.776 7.87938 134.19 8.26369 134.52 8.71651C134.839 9.14066 135.061 9.62955 135.171 10.1489C135.28 10.6789 135.335 11.2186 135.334 11.7597C135.334 12.1624 135.288 13.034 135.202 14.3695L134.932 20.1398C134.876 21.2715 134.851 22.3266 134.851 23.29C133.783 23.29 132.781 23.2594 131.85 23.2594C130.589 23.2594 129.44 23.2696 128.402 23.29C128.497 22.3283 128.599 20.8925 128.707 18.9827C128.816 17.0729 128.87 15.7323 128.87 14.9608C128.87 13.7579 128.636 12.9219 128.178 12.4529C127.952 12.2199 127.681 12.0366 127.38 11.9146C127.08 11.7926 126.758 11.7347 126.434 11.7444C125.802 11.7491 125.19 11.9603 124.689 12.3459C124.109 12.8008 123.671 13.4129 123.428 14.1096C123.046 15.3407 122.834 16.6184 122.797 17.9072C122.675 19.6709 122.594 21.4651 122.553 23.29C121.492 23.2696 120.459 23.2594 119.456 23.2594C118.405 23.2594 117.255 23.2696 116.007 23.29Z" fill="#1F4778" stroke="#1F4778" stroke-width="0.86" stroke-miterlimit="10"></path><path d="M164.162 17.989C164.036 18.6109 163.884 19.4809 163.704 20.5989C163.524 21.7169 163.402 22.5835 163.338 23.1986C161.329 23.5156 159.299 23.6859 157.265 23.7083C155.646 23.7196 154.033 23.5016 152.474 23.061C150.992 22.6301 149.609 21.9094 148.405 20.9404C147.233 20.0423 146.32 18.8477 145.761 17.4793C145.21 16.0579 144.939 14.5434 144.962 13.019C144.936 11.2314 145.302 9.45982 146.035 7.82987C146.735 6.31654 147.795 4.99856 149.122 3.99151C150.437 2.9803 151.934 2.23418 153.532 1.79452C155.148 1.35192 156.816 1.12904 158.491 1.13186C160.444 1.17142 162.39 1.37431 164.309 1.73845L164.34 3.07907C164.34 3.66018 164.391 4.30245 164.436 5.00589L164.543 6.82057C163.307 6.52492 162.3 6.31083 161.532 6.21398C160.825 6.11217 160.111 6.05937 159.396 6.05596C158.06 6.03411 156.737 6.3293 155.536 6.91743C154.412 7.46981 153.472 8.33753 152.83 9.41516C152.174 10.5124 151.834 11.7705 151.848 13.0496C151.818 14.1457 152.104 15.2272 152.672 16.1641C153.219 17.026 153.991 17.7208 154.905 18.1725C155.993 18.6748 157.182 18.9174 158.379 18.8811C159.201 18.876 160.022 18.8147 160.836 18.6976C161.957 18.524 163.067 18.2874 164.162 17.989Z" fill="#1F4778" stroke="#1F4778" stroke-width="0.86" stroke-miterlimit="10"></path><path d="M166.964 23.2903C167.137 21.7101 167.261 20.4102 167.335 19.3908C167.481 17.2566 167.635 14.7759 167.798 11.9485C167.89 10.0829 167.961 8.28859 168.012 6.56566C168.058 4.84783 168.083 3.17078 168.083 1.5498C169.426 1.5498 170.524 1.58039 171.369 1.58039C172.515 1.58039 173.596 1.57019 174.613 1.5498L174.283 5.40345C174.227 6.04063 174.146 7.33027 174.029 9.27239C174.295 8.9157 174.582 8.57526 174.888 8.25291C175.117 8.03066 175.363 7.82778 175.626 7.64632C175.888 7.46576 176.165 7.30883 176.455 7.17736C176.767 7.03831 177.09 6.92577 177.421 6.84093C177.818 6.74189 178.22 6.66867 178.626 6.62173C179.079 6.56587 179.534 6.53864 179.989 6.54018C180.868 6.53878 181.743 6.63971 182.599 6.84093C183.39 7.01748 184.127 7.381 184.75 7.90119C185.298 8.34334 185.717 8.92651 185.96 9.58843C186.175 10.2465 186.281 10.9351 186.276 11.6274C186.276 11.9129 186.276 12.2952 186.276 12.7641C186.276 13.2331 186.225 13.8346 186.169 14.5584L185.823 19.926C185.782 20.5938 185.757 21.1494 185.752 21.5929C185.747 22.0363 185.752 22.5868 185.752 23.2546C184.65 23.2342 183.594 23.224 182.583 23.224C181.451 23.224 180.301 23.2342 179.135 23.2546C179.311 21.8443 179.469 20.2165 179.608 18.3713C179.747 16.526 179.815 15.1548 179.811 14.2577C179.811 13.2382 179.603 12.5551 179.186 12.1524C178.734 11.7374 178.135 11.5192 177.523 11.5458C176.94 11.548 176.368 11.6988 175.86 11.9842C175.409 12.2253 175.026 12.5758 174.746 13.0037C174.417 13.5254 174.184 14.1021 174.059 14.7062C173.79 16.0237 173.62 17.3596 173.551 18.7026C173.489 19.6813 173.428 21.2105 173.367 23.2903C172.294 23.2903 171.297 23.2597 170.367 23.2597C169.436 23.2597 168.302 23.2699 166.964 23.2903Z" fill="#1F4778" stroke="#1F4778" stroke-width="0.86" stroke-miterlimit="10"></path><path d="M187.995 30.5693C187.656 28.0308 187.434 26.454 187.329 25.8389C187.894 26.1214 188.49 26.3402 189.104 26.4914C189.538 26.5992 189.983 26.6591 190.431 26.6698C190.805 26.6706 191.176 26.6173 191.535 26.5118C191.828 26.4298 192.106 26.297 192.354 26.1193C192.605 25.9137 192.827 25.6754 193.015 25.4107C193.206 25.1512 193.376 24.8768 193.523 24.5901C193.671 24.2759 193.789 23.9481 193.874 23.6113L190.909 14.5329L188.366 7.01416C189.946 7.03455 191.055 7.04474 191.692 7.04474C192.435 7.04474 193.452 7.03455 194.744 7.01416C194.947 7.82975 195.319 9.24173 195.868 11.2501C196.417 13.2585 196.809 14.8183 197.053 15.9652C197.19 16.5922 197.323 17.3874 197.45 18.3559L197.73 17.0816L198.096 15.9193C198.233 15.481 198.411 14.961 198.604 14.3544L199.622 11.4591L201.336 7.01416C202.663 7.01416 203.66 7.04474 204.341 7.04474C204.931 7.04474 205.989 7.03455 207.515 7.01416L204.463 13.9568L198.92 26.8431C198.636 27.4483 198.295 28.0252 197.902 28.566C197.603 28.9429 197.261 29.2849 196.885 29.5855C196.548 29.8496 196.181 30.0737 195.792 30.2533C195.231 30.5065 194.644 30.6979 194.042 30.8242C193.342 30.9752 192.627 31.0504 191.911 31.0485C191.581 31.0485 191.148 31.0485 190.604 30.9771C190.06 30.9058 189.627 30.8803 189.292 30.8344C188.956 30.7885 188.575 30.6968 187.995 30.5693Z" fill="#1F4778" stroke="#1F4778" stroke-width="0.86" stroke-miterlimit="10"></path><path d="M226.354 23.2899C225.143 23.2695 224.134 23.2594 223.327 23.2594C222.31 23.2594 221.334 23.2593 220.327 23.2899V21.1082C220.031 21.4915 219.706 21.8511 219.355 22.1838C219.09 22.4244 218.8 22.6362 218.491 22.8159C218.157 23.0052 217.806 23.1623 217.443 23.2848C217.007 23.4279 216.559 23.532 216.105 23.5958C215.6 23.6691 215.09 23.7066 214.579 23.7079C213.778 23.7108 212.98 23.6115 212.204 23.4123C211.48 23.2207 210.807 22.8727 210.231 22.3928C209.704 21.9813 209.302 21.4304 209.071 20.8024C208.855 20.1344 208.75 19.4351 208.761 18.7329C208.761 18.5391 208.761 18.2231 208.812 17.8408L209.066 14.2216C209.137 12.8963 209.209 11.4232 209.27 9.81237C209.315 8.82347 209.336 7.89064 209.336 7.00879C210.648 7.02918 211.765 7.03937 212.687 7.03937C213.61 7.03937 214.639 7.02918 215.775 7.00879L215.266 13.0747C215.19 14.0024 215.149 14.6039 215.144 14.9659C215.139 15.3278 215.144 15.5215 215.144 15.6387C215.144 16.755 215.368 17.5095 215.82 17.902C216.267 18.2948 216.844 18.5058 217.438 18.4933C217.696 18.491 217.953 18.4532 218.201 18.3811C218.457 18.3039 218.703 18.1961 218.933 18.06C219.14 17.9281 219.328 17.7686 219.493 17.5859C219.684 17.3639 219.845 17.117 219.971 16.8519C220.142 16.491 220.27 16.1112 220.352 15.7203C220.489 15.015 220.579 14.3015 220.622 13.5845C220.662 12.9575 220.723 11.8768 220.795 10.3374L220.917 7.00879C222.285 7.00879 223.404 7.03937 224.284 7.03937C225.27 7.03937 226.257 7.03937 227.254 7.00879C227.01 9.70362 226.82 12.2676 226.684 14.7008C226.549 17.134 226.438 19.997 226.354 23.2899Z" fill="#1F4778" stroke="#1F4778" stroke-width="0.86" stroke-miterlimit="10"></path><path d="M231.435 11.6631C231.633 10.613 231.76 9.88922 231.816 9.48653C231.872 9.08383 231.953 8.46703 232.07 7.61577C234.65 7.00008 237.287 6.65837 239.939 6.59628C241.096 6.58541 242.251 6.72766 243.372 7.01937C244.294 7.2334 245.137 7.70534 245.803 8.38038C246.431 9.13231 246.744 10.0986 246.678 11.0769C246.678 11.6682 246.601 13.0088 246.438 15.0886C246.276 17.1683 246.159 19.9005 246.077 23.275C245.036 23.2546 244.002 23.2444 242.975 23.2444C241.948 23.2444 240.888 23.2546 239.796 23.275C239.939 22.106 240.098 19.6966 240.274 16.0469C239.872 16.2355 239.557 16.3731 239.333 16.4598C239.11 16.5464 238.703 16.6688 238.133 16.8421C237.563 17.0154 237.116 17.153 236.795 17.2703C236.494 17.3739 236.21 17.5253 235.956 17.7189C235.749 17.865 235.575 18.0546 235.448 18.2745C235.345 18.4709 235.292 18.6898 235.295 18.9116C235.294 19.088 235.332 19.2624 235.407 19.422C235.482 19.5817 235.591 19.7225 235.727 19.8343C236.121 20.1211 236.605 20.2568 237.09 20.2166C237.331 20.217 237.57 20.1983 237.807 20.1605C238.164 20.0989 238.514 20.0068 238.855 19.8853C238.55 20.7008 238.186 21.8902 237.762 23.4534C236.904 23.5974 236.037 23.6724 235.168 23.6777C234.049 23.7116 232.934 23.5246 231.887 23.1272C231.027 22.7836 230.309 22.156 229.853 21.3482C229.403 20.6089 229.159 19.7623 229.146 18.8964C229.146 18.3972 229.234 17.9019 229.405 17.4334C229.601 16.9248 229.877 16.4514 230.224 16.0316C230.595 15.5735 231.036 15.1777 231.531 14.8592C232.168 14.4675 232.851 14.1591 233.566 13.9417C234.641 13.6034 235.737 13.3327 236.846 13.1312C237.396 13.0241 237.904 12.912 238.372 12.7896C238.709 12.7088 239.039 12.6014 239.359 12.4685C239.535 12.3923 239.697 12.2853 239.837 12.1525C239.949 12.0447 240.037 11.9144 240.096 11.7702C240.151 11.636 240.179 11.4922 240.178 11.3471C240.187 11.1597 240.144 10.9736 240.054 10.809C239.964 10.6444 239.831 10.5078 239.669 10.4143C239.211 10.1678 238.693 10.0548 238.174 10.088C236.36 10.1084 234.113 10.6334 231.435 11.6631Z" fill="#1F4778" stroke="#1F4778" stroke-width="0.86" stroke-miterlimit="10"></path><path d="M249.459 23.29C249.758 20.8773 249.99 18.2147 250.156 15.3024C250.322 12.3901 250.421 9.63236 250.451 7.02928C251.723 7.04967 252.82 7.05986 253.742 7.05986C254.815 7.05986 255.842 7.05986 256.834 7.02928L256.671 9.19568C256.957 8.86932 257.259 8.55797 257.577 8.26285C257.867 8.0069 258.184 7.78302 258.523 7.59509C258.904 7.38341 259.306 7.21255 259.723 7.08535C260.178 6.93871 260.644 6.8296 261.117 6.75912C261.64 6.6759 262.169 6.63498 262.698 6.63678C263.45 6.63715 264.198 6.72092 264.931 6.88655C265.572 7.01823 266.187 7.25413 266.752 7.5849C267.226 7.88218 267.64 8.26605 267.973 8.71652C268.293 9.14936 268.515 9.64683 268.624 10.1744C268.732 10.7044 268.787 11.2441 268.786 11.7852C268.786 12.1879 268.741 13.0595 268.654 14.395L268.379 20.1398C268.329 21.2715 268.303 22.3266 268.303 23.29C267.23 23.29 266.233 23.2595 265.297 23.2595C264.039 23.2595 262.892 23.2696 261.854 23.29C261.949 22.3283 262.051 20.8926 262.159 18.9827C262.268 17.0729 262.32 15.7323 262.317 14.9609C262.317 13.7579 262.086 12.9219 261.625 12.4529C261.4 12.2203 261.129 12.0372 260.83 11.9152C260.53 11.7933 260.209 11.7351 259.886 11.7444C259.254 11.7492 258.642 11.9604 258.141 12.3459C257.561 12.8019 257.122 13.4134 256.875 14.1096C256.498 15.3417 256.287 16.6189 256.249 17.9072C256.127 19.6709 256.044 21.4652 256 23.29C254.942 23.2696 253.91 23.2595 252.903 23.2595C251.845 23.2595 250.697 23.2696 249.459 23.29Z" fill="#1F4778" stroke="#1F4778" stroke-width="0.86" stroke-miterlimit="10"></path><path d="M0 35.7227H51.7758L56.2515 45H0V35.7227Z" fill="#FDCE0B"></path><path d="M55.5598 35.7227H268.781V45H60.4068L55.5598 35.7227Z" fill="#005FAC"></path><path d="M12.7252 0.519842L20.2983 24.3809H7.74093L0 0.489258L12.7252 0.519842Z" fill="#D7000F"></path><path d="M26.8085 12.4376C26.8046 10.2141 27.3572 8.02505 28.4157 6.07093L26.6509 0.519841L13.9358 0.489258L21.6818 24.3809H34.1629C31.9546 23.2669 30.0979 21.5608 28.7995 19.4522C27.5011 17.3437 26.8119 14.9154 26.8085 12.4376Z" fill="#D7000F"></path><path d="M41.2273 11.8564H52.9252C52.8022 8.64678 51.4344 5.61196 49.1129 3.39763C46.7915 1.18329 43.6995 -0.035782 40.4949 -0.000219823C37.205 -0.000219823 34.0497 1.30964 31.7234 3.6412C29.397 5.97277 28.0901 9.13505 28.0901 12.4324C28.0901 15.7297 29.397 18.892 31.7234 21.2236C34.0497 23.5551 37.205 24.865 40.4949 24.865C43.6986 24.8978 46.7887 23.6769 49.1081 21.4617C51.4275 19.2466 52.7933 16.212 52.915 13.0033H41.2171L41.2273 11.8564Z" fill="#D7000F"></path></g><defs><clipPath id="clip0_119_248"><rect width="269" height="45" fill="white"></rect></clipPath></defs></svg>