<?xml version="1.0" encoding="utf-8"?>
<!-- Generator: Adobe Illustrator 25.2.1, SVG Export Plug-In . SVG Version: 6.00 Build 0)  -->
<svg version="1.1" id="Layer_1" xmlns="http://www.w3.org/2000/svg" xmlns:xlink="http://www.w3.org/1999/xlink" x="0px" y="0px"
	 viewBox="0 0 360 100.7" style="enable-background:new 0 0 360 100.7;" xml:space="preserve">
<style type="text/css">
	.st0{fill:#7C8284;}
	.st1{fill:#CB4E22;}
</style>
<g>
	<g>
		<path class="st1" d="M52.4,22.8L33.5,77.6H19.2L0.3,22.8h14.3L26.5,60l11.9-37.2c0,0,7.9-26.3,26.4-22.4
			C58.7,5.7,52.4,22.8,52.4,22.8"/>
	</g>
	<polygon class="st1" points="322.7,23.5 322.7,78.6 360,78.6 360,68.1 336.5,68.1 336.5,54.2 358.1,54.2 358.1,43.7 336.5,43.7 
		336.5,34 360,34 360,23.5 	"/>
	<g>
		<path class="st1" d="M312.3,75.5c-2.4,1-5.6,2-9.4,2.9c-3.8,0.9-7.6,1.4-11.4,1.4c-8.7,0-15.6-2.5-20.7-7.5
			c-5.1-5-7.7-12.1-7.7-21.3c0-8.6,2.6-15.6,7.7-20.8c5.1-5.2,12.2-7.8,21.1-7.8c4.6,0,8.4,0.4,11.3,1.3c2.9,0.9,5.9,2,9,3.5v12.9
			h-1.3c-0.7-0.5-1.6-1.2-2.9-2.2c-1.2-1-2.4-1.8-3.6-2.4c-1.4-0.8-3-1.5-4.8-2c-1.8-0.6-3.7-0.9-5.7-0.9c-2.4,0-4.5,0.4-6.5,1.1
			c-1.9,0.7-3.7,1.9-5.2,3.4c-1.5,1.5-2.6,3.4-3.5,5.6c-0.8,2.3-1.3,4.9-1.3,7.9c0,6.4,1.6,11.2,4.8,14.3c3.2,3,7.6,4.6,13.3,4.6
			c0.5,0,1.1,0,1.7,0c0.7,0,1.2-0.1,1.7-0.1V58.6h-10.7V48.3h24.1V75.5z"/>
		<path class="st1" d="M207.9,77.7l18.9-54.9h14.4L260,77.7h-14.3l-11.9-37.2l-11.9,37.2c0,0-7.9,26.3-26.4,22.4
			C201.6,94.9,207.9,77.7,207.9,77.7"/>
	</g>
	<polygon class="st1" points="178.5,78.6 178.5,34 162.2,34 162.2,23.5 208.6,23.5 208.6,34 192.3,34 192.3,78.6 	"/>
	<polygon class="st1" points="156.7,78.6 143.4,78.6 122.1,40.2 122.1,78.6 109.5,78.6 109.5,23.5 126.5,23.5 144.1,55.1 
		144.1,23.5 156.7,23.5 	"/>
	<g>
		<path class="st1" d="M51.6,77.7l18.9-54.9h14.4l18.9,54.9H89.4L77.5,40.6L65.5,77.7c0,0-7.9,26.3-26.4,22.4
			C45.3,94.9,51.6,77.7,51.6,77.7"/>
	</g>
</g>
</svg>
