<?xml version="1.0" encoding="utf-8"?>
<!-- Generator: Adobe Illustrator 25.2.1, SVG Export Plug-In . SVG Version: 6.00 Build 0)  -->
<svg version="1.1" id="Layer_1" xmlns="http://www.w3.org/2000/svg" xmlns:xlink="http://www.w3.org/1999/xlink" x="0px" y="0px"
	 viewBox="0 0 292.1 117.8" style="enable-background:new 0 0 292.1 117.8;" xml:space="preserve">
<style type="text/css">
	.st0{fill:#FFFFFF;}
	.st1{fill:#CB4E22;}
</style>
<g>
	<g>
		<g>
			<path class="st0" d="M44.3,20.6c5.3-3.3,10.6-6.4,16.1-9.3c2.1-1.1,4.7-2.4,7.6-3.8c3-1.4,6-2.5,9-3.5c3-0.9,5.7-1.3,8.1-1
				c1,0.2,1.7,0.5,2.3,1c0.4,0.2,0.9,0.3,1.3,0.1c0.4-0.1,0.8-0.4,1-0.8C90,2.9,90,2.5,89.9,2c-0.1-0.4-0.4-0.8-0.8-1
				c-1.2-0.7-2.5-1-3.8-1c-2.3,0-5,0.5-8.1,1.6S71,4.1,67.9,5.7c-3.1,1.6-6,3.1-8.5,4.5c-0.8,0.5-1.6,0.9-2.3,1.3
				c-3.6,2-7.2,4-10.7,6.1c-0.3,0.2-0.7,0.1-0.9-0.1C45.1,17.3,45,17,45,16.6c0.1-0.8,0.3-1.6,0.5-2.4c0.1-0.7,0-1.2-0.4-1.7
				c-0.4-0.5-0.9-0.8-1.6-0.8c-0.6,0-1.1,0.2-1.5,0.6c-0.4,0.4-0.6,0.9-0.7,1.4c-0.1,2.3-0.2,4.6-0.4,6.9c-1,0.6-1.9,1.1-2.9,1.7
				c-5,2.9-10,5.8-15,8.6c-2.1,1.2-4.2,2.4-6.3,3.5c-3.5-0.6-7.2,0.5-11.3,3.2c-1.8,1.3-3.4,2.7-4.9,4.3c-0.7,0.7-0.8,1.5-0.5,2.4
				c0.2,0.5,0.6,0.9,1.1,1.2c0.5,0.3,1,0.4,1.6,0.2l0.4-0.1l0,0c2-0.8,3.9-1.7,5.7-2.8c3.4-2,6.7-4,9.9-6.1c1.3,0.3,2.6,0.9,3.9,1.8
				c4,2.9,7.1,6.6,9.3,11.2c2.2,4.6,3.8,9.4,4.7,14.4c-0.9,11.4-1.7,22.8-2.3,34.1c-0.1,2.4-0.3,4.8-0.4,7.2c0,0.8,0.3,1.4,0.8,1.8
				c0.6,0.4,1.2,0.4,1.8,0.3c0.6-0.2,1.1-0.7,1.3-1.5c1.3-6.3,2.1-12.7,2.3-19.2c0.2-6.5-0.3-13-1.5-19.3c0.2-2.6,0.3-5.2,0.5-7.8
				C40.3,46.6,42,33.5,44.3,20.6z M38.1,85.2c0-2.4,0.1-4.7,0.2-7.1C38.3,80.5,38.2,82.9,38.1,85.2z M38.8,44
				c-0.3,3.3-0.7,6.6-1,9.8c-0.2,2.3-0.4,4.6-0.6,6.9c-1.4-4.8-3.3-9.5-5.7-13.9c-1.4-2.5-2.9-4.7-4.7-6.7c-1.8-1.9-3.8-3.4-5.9-4.5
				l0,0c0.6-0.4,1.2-0.8,1.8-1.1c0.7-0.4,1.3-0.8,2-1.2c1.2-0.8,2.4-1.6,3.6-2.4c4.2-2.7,8.4-5.4,12.6-8.1c-0.1,0.8-0.1,1.6-0.2,2.4
				C40.1,31.4,39.5,37.7,38.8,44z"/>
			<path class="st0" d="M74.2,59c-0.6-0.4-1.1-0.6-1.6-0.4c-0.5,0.2-0.9,0.6-1.1,1.4c-0.2,0.7-0.3,1.5-0.1,2.4
				c0.2,0.7,0.6,1.2,1.3,1.5c0.7,0.3,1.4,0.5,2,0.5c0.4,0,0.6-0.2,0.6-0.6c0-0.4,0-0.9,0-1.5c-0.1-0.4-0.1-0.9-0.1-1.4
				C75.1,60.2,74.8,59.5,74.2,59z"/>
			<path class="st0" d="M201.3,16.4c-1.1-2.6-2.8-4.6-5-5.9c-2.3-1.3-4.8-2.1-7.5-2.4c-3.9-0.3-7.9,0.2-11.8,1.5
				c-3.9,1.2-7.7,2.9-11.3,5c-3.6,2.1-6.9,4.4-10,6.7c-4.3,3.4-8.3,7.2-12.2,11.4c-3.9,4.2-7.2,8.8-10,13.7
				c-2.6,4.5-4.5,9.2-5.7,14.2c-1,1-2.4,1.8-4.1,2.6c-2.2,0.9-4.2,1.3-6,1.1c-0.9-0.2-1.5-0.5-1.9-1c0,0,0-0.1,0-0.1
				c0.1-0.4,0.2-0.9,0.4-1.4c0.9-3.5,2-6.8,3.4-10.1c0.2-0.6,0.2-1.2-0.1-1.6c-0.3-0.4-0.8-0.6-1.3-0.7c-0.5,0-1,0.2-1.4,0.8
				c0,0,0,0.1-0.1,0.1c0,0,0,0.1-0.1,0.1l0,0.1c-0.1,0.1-0.1,0.2-0.1,0.3c-0.6,1.2-1.2,2.7-1.8,4.4c-0.6,1.7-1,3.3-1.2,5l0,0
				c-0.2,0.8-0.4,1.6-0.6,2.3c-0.5,2-1.1,4.1-1.7,6.1c-0.2,0.8-0.5,1.6-0.8,2.4c-0.2,0.1-0.3,0.1-0.3-0.1c-0.3-3.9-0.1-9.4,0.6-16.4
				c0.3-0.8,0.5-1.6,0.8-2.4c1.8-5.3,3.4-10.6,4.9-16c0.7-2.7,1.4-5.5,2-8.2c0-0.1,0-0.3,0.1-0.4c0.1-0.6,0.2-1.4,0.3-2.2
				c0.1-0.8,0-1.6-0.2-2.2c-0.2-0.6-0.7-1-1.5-1l-0.1,0c-1.3,0.3-2.5,1.9-3.6,5.1c-1.1,3.1-2,6.8-2.8,11.1c-0.8,4.3-1.4,8.3-1.9,12
				c-0.5,3.7-0.7,6.3-0.8,7.8c-0.1,1-0.2,2-0.3,3c-0.3,0.7-0.6,1.5-1,2.2c-0.7,1.6-1.8,3.5-3.2,5.7c-1.4,2.2-2.9,3.6-4.5,4.2l0,0
				c-0.1,0-0.1,0-0.1,0l0,0c0,0-0.1,0-0.1-0.1c-0.4-0.7-0.6-1.7-0.6-3.3c0-1.5,0.2-3.1,0.3-4.7c0.2-1.9,0.3-3.4,0.3-4.5l0,0
				c0,0,0-0.1,0-0.1c0-0.1,0-0.1,0-0.2c0-0.1-0.1-0.2-0.1-0.3c0-0.1-0.1-0.2-0.2-0.2c0,0-0.1-0.1-0.1-0.1c0,0-0.1-0.1-0.2-0.1
				c-0.1-0.1-0.2-0.2-0.4-0.2c-0.2-0.1-0.3-0.1-0.5-0.1c-0.1,0-0.2,0-0.3,0c-0.1,0-0.1,0,0,0c-0.4,0.1-0.6,0.2-0.8,0.3
				c-0.3,0.2-0.5,0.3-0.6,0.6c-1.1,1.4-2,2.9-2.7,4.6c-0.1,0.1-0.1,0.3-0.2,0.4c-0.7,1.5-1.3,3.1-1.9,4.6c-0.5,1.2-1,2.5-1.5,3.7
				c-0.3,0.7-0.6,1.4-0.9,2.1c0,0.1,0,0.1-0.1,0.1c-0.1,0-0.1,0-0.1,0c0,0-0.1-0.1-0.1-0.1c0.2-1.2,0.3-2.4,0.5-3.6
				c0.1-1,0.2-2.1,0.4-3.1c0-0.1,0-0.1,0-0.2c0.1-0.9,0.2-1.9,0.3-2.9c0,0,0-0.1,0-0.1c0-0.4,0-0.9-0.1-1.4l-0.1-0.4
				c-0.2-0.3-0.4-0.5-0.6-0.7c-0.8-0.4-1.5-0.4-2.1,0.1c-0.6,0.5-0.8,1.1-0.6,1.9c-0.1,1.2-0.3,2.5-0.4,3.7
				c-0.3,0.6-0.7,1.3-1.1,2.1c-1.4,2.7-3,5.3-4.6,7.8c-1.6,2.4-3.1,3.9-4.3,4.4c0,0,0,0-0.1,0c-0.2-0.1-0.3-0.2-0.4-0.4
				c-0.6-1.6-0.8-3.7-0.4-6.2c0.3-2.6,1-4.5,1.9-5.9c0.3-0.4,0.4-0.9,0.3-1.4c-0.1-0.5-0.3-0.9-0.8-1.2c-0.4-0.3-0.9-0.4-1.4-0.4
				c-0.5,0.1-0.9,0.3-1.2,0.7c-1.1,1.7-1.8,3.6-2.1,5.5c-0.2,1.1-0.3,2.1-0.3,3.2c-0.7,1.5-1.4,3-2.2,4.3c-1.1,2-2.3,3.4-3.5,4.2
				c-0.1,0-0.3,0.1-0.4,0.1c-0.9,0.1-1.4-0.3-1.7-1.2c-0.2-0.9-0.3-2-0.2-3.4c0.1-1.3,0.2-2.5,0.4-3.6c0.1-0.7,0.2-1.3,0.2-1.7
				c0.1-0.7,0.2-1.5,0.2-2.3l0,0c0-0.4,0-0.8,0-1.2c0-0.4-0.2-0.8-0.4-1.2c-0.2-0.4-0.6-0.7-1.1-0.9c-0.5-0.2-0.9-0.2-1.4,0
				c-1.6,0.7-2.8,2.2-3.6,4.5c-0.8,2.4-1.4,4.6-1.8,6.8c-0.1,0.6-0.3,1.2-0.4,1.7c-0.6,2.7-1.2,5.3-1.8,7.9
				c-0.1,0.3-0.1,0.5-0.2,0.8c-0.2,0.7-0.4,1.4-0.6,2c-0.6-3.1-0.7-8-0.1-14.9c0.6-6.9,1.4-13.5,2.6-20c1.2-6.5,2.3-10.8,3.5-12.8
				c0.7-0.3,1.1-0.8,1.2-1.5c0.1-0.7-0.1-1.3-0.6-1.8c-0.4-0.4-0.9-0.5-1.5-0.5c-0.5,0-1,0.2-1.4,0.7c-0.1,0.1-0.2,0.2-0.3,0.3
				c-0.1,0.1-0.2,0.2-0.3,0.3c-0.8,1-1.4,2.2-1.7,3.4c0,0.1-0.1,0.2-0.1,0.3c-0.3,1.1-0.6,2.2-0.8,3.3c-2.1,10.8-3.2,21.7-3.4,32.7
				c0,0.3,0,0.7,0,1c0,1.8,0,3.9,0.2,6.2c0.1,2.3,0.6,4.1,1.3,5.4c0.2,0.3,0.5,0.6,0.9,0.8c0.4,0.2,0.8,0.2,1.2-0.1c0,0,0,0,0.1,0
				c0,0,0,0,0.1,0c0.1-0.1,0.2-0.2,0.2-0.3c0.4-0.7,0.7-1.5,0.9-2.4c0.1-0.3,0.1-0.6,0.2-0.9c0.2-0.8,0.6-2.2,1.1-4
				c0.5-1.8,1-3.8,1.6-5.8c0.6-2.1,1.1-3.9,1.5-5.4c0.4-1.5,0.7-2.4,0.8-2.7c0,1.7,0.2,3.5,0.5,5.4c0.3,1.9,0.8,3.5,1.6,4.8
				c0.8,1.3,2,1.8,3.5,1.5c0.2-0.1,0.4-0.2,0.7-0.3c1.5-1.1,2.9-3.1,4.3-5.9c0.3-0.5,0.5-1.1,0.8-1.6c0.1,1.5,0.4,3,0.9,4.3
				c0.3,0.9,0.9,1.6,1.6,2.1c0.7,0.5,1.5,0.6,2.5,0.4c0.2-0.1,0.4-0.1,0.5-0.2c1-0.6,1.8-1.5,2.4-2.5c0.5-0.7,1-1.5,1.4-2.2
				c1.7-3,3.4-6.1,4.9-9.2c-0.2,1.6-0.3,3.2-0.3,4.7c0,0.2,0,0.3,0,0.5c-0.1,1.1,0,2.2,0.3,3.4c0.2,0.6,0.5,1,1.1,1.3
				c0.5,0.2,1.1,0.2,1.7-0.1c0,0,0.1-0.1,0.1-0.1c0,0,0.1-0.1,0.1-0.1c0.1,0,0.1-0.1,0.2-0.1c0,0,0-0.1,0.1-0.1l0,0
				c0.1-0.1,0.2-0.2,0.2-0.3l0,0c0.3-0.5,0.5-1,0.6-1.5c0.1-0.6,0.3-1.2,0.6-1.7c0.4-0.9,1-2.1,1.6-3.5c0.6-1.4,1.3-2.9,1.9-4.3
				c0.7-1.7,1.3-3,1.8-4c0-0.1,0.1-0.1,0.2-0.1c0.1,0,0.1,0,0.2,0c0.1,0,0.1,0.1,0.1,0.2c0,2.2,0.3,4.3,0.9,6.3
				c0.6,1.9,1.6,2.8,3,2.7c0.1,0,0.1,0,0.2-0.1c0,0,0.1,0,0.1,0c1.4-0.5,2.7-1.7,4-3.6c1.3-1.9,2.4-4,3.5-6.3c0.2-0.5,0.4-1,0.7-1.4
				c-0.1,2-0.1,4-0.1,5.9c0,0,0,0.1,0,0.1c0,1.5,0.2,2.9,0.5,4.4c0.2,0.8,0.7,1.4,1.3,1.8c0.6,0.4,1.3,0.3,2.1-0.3
				c0.7-0.8,1.3-1.7,1.6-2.7c0-0.1,0.1-0.1,0.1-0.2c0.9-2.4,1.7-4.8,2.3-7.3c0-0.1,0-0.2,0-0.2c0.1,0,0.2,0.1,0.2,0.1
				c1.9,0.8,4.1,0.7,6.5-0.2c2.2-0.8,4-1.8,5.4-2.9c-0.4,2.4-0.7,4.7-0.7,7.1c-0.1,5,0.8,9.7,2.8,14.2c1.9,4.4,5,8.1,9.2,11
				c3,2,6.3,3.5,9.8,4.5c3.5,1,7.1,1.5,10.7,1.5c0.4,0,0.9,0,1.3,0c0.3,0,0.6,0.1,0.8,0.3c0.2,0.2,0.3,0.4,0.4,0.7
				c0.1,3,0.3,6,0.6,9c0,0.2,0.1,0.4,0.1,0.6c0.1,0.9,0.3,1.8,0.6,2.8c0.3,1,0.8,1.7,1.5,2.2c0,0,0.1,0.1,0.2,0.1
				c0.6,0.2,1,0,1.3-0.4c0.3-0.4,0.4-0.9,0.4-1.4s-0.4-0.9-0.9-1.1c-0.5-1-0.9-2.1-1.2-3.2c-0.6-2.9-1.1-5.8-1.3-8.8
				c0-0.3,0.1-0.5,0.2-0.7c0.2-0.2,0.4-0.4,0.7-0.4c0.9-0.1,1.7-0.3,2.6-0.7c0.2-0.1,0.3-0.2,0.3-0.4c0-0.2-0.1-0.3-0.2-0.4
				c-0.1-0.1-0.3-0.1-0.5-0.1c-0.6,0.3-1.3,0.4-2,0.6c-0.3,0-0.6,0-0.9-0.2c-0.3-0.2-0.4-0.5-0.4-0.8c-0.1-0.9-0.1-1.9-0.1-2.8
				c-0.1-3.5-0.1-7,0-10.5c0,0.7,0.1,1.4,0.2,2.1c0.2,1.4,0.5,2.9,0.9,4.5c0.4,1.6,1.1,2.9,2.2,3.9c0.8,0.6,1.7,1,2.7,1
				c1,0,2-0.1,2.9-0.5c3.2-1.3,5.9-3.5,8.3-6.6c2.4-3.1,4.1-6.3,5.1-9.5c0.9-2.7,1.1-5.4,0.4-7.9c-0.6-2.5-2.4-4.4-5.2-5.6l0,0
				c-0.4-0.2-0.6-0.5-0.7-0.9c-0.1-0.4,0.1-0.7,0.4-1c4.5-3.2,8.4-7,11.7-11.4c3.3-4.4,6-9.2,8.1-14.3c1.4-3.4,2.3-7,2.9-10.8
				C202.9,23.6,202.5,20,201.3,16.4z M113.5,34.8c0.8-3.9,1.7-7,2.5-9c0.1-0.1,0.2-0.2,0.3-0.2c0.1,0,0.3,0,0.4,0.1
				c0.1,0.1,0.2,0.2,0.2,0.4c0,0.3-0.1,0.6-0.1,1c0,0.2,0,0.4-0.1,0.6c-0.1,0.9-0.2,1.8-0.4,2.7c-1.2,5.9-2.7,11.7-4.6,17.4
				c0,0.1,0,0.1-0.1,0.1c-0.1,0-0.1,0-0.1,0c0,0-0.1-0.1-0.1-0.2C112,43.1,112.7,38.8,113.5,34.8z M198.7,29.8
				c-0.6,2.7-1.4,5.1-2.3,7.3c-2.7,6.3-6.3,12-11,17.2c-4.7,5.1-10.3,8.9-16.8,11.3c-0.8,0.3-1.2,0.8-1.3,1.4
				c-0.1,0.6,0,1.2,0.5,1.7c0.4,0.5,1,0.7,1.9,0.6c1.6-0.4,3.1-0.7,4.7-0.8c1.6-0.1,3.1,0,4.7,0.4c1.5,0.5,2.6,1.3,3.3,2.6
				c0.6,1.2,0.9,2.6,0.8,4.2c-0.2,2.2-0.7,4.4-1.5,6.4c-0.9,2.1-2,4-3.3,5.7c-1.2,1.7-2.7,3.3-4.5,4.8c-1.8,1.5-3.8,2.2-5.9,2.1
				c-0.1,0-0.1,0-0.1,0c-1.2-0.3-2.1-1.2-2.7-2.6c-0.6-1.5-1-3-1.2-4.7c-0.2-1.7-0.3-3.1-0.4-4.1c-0.1-5.8,0.2-11.5,0.9-17.2
				c0.7-5.7,1.6-11.4,2.7-17c0.8-4.5,1.8-9,2.9-13.5c0.1-0.5,0-0.9-0.2-1.3c-0.2-0.4-0.5-0.7-1-0.9c-0.5-0.2-1-0.2-1.4,0
				c-0.5,0.2-0.8,0.5-1,1c-1.2,3.3-2.1,6.7-2.6,10.2c-1.3,8.4-2,16.8-2.4,25.3c-0.3,8.4-0.4,16.9-0.1,25.4c0,0.6,0,1.1,0.1,1.7
				c0,0.4,0,0.9,0.1,1.3c0,0.3-0.1,0.6-0.3,0.8c-0.2,0.2-0.5,0.3-0.8,0.3c-7.6,0.2-14.6-1.8-20.9-6c-4.5-3.2-7.6-7.3-9.2-12.1
				c-1.6-4.9-2.2-10-1.6-15.3c0.9-6.4,3-12.3,6.4-17.9c3.4-5.6,7.3-10.6,11.7-15.1c4.7-4.9,10.1-9.3,16-13.3c6-4,12.3-6.6,19-8
				c2.6-0.5,5.3-0.5,8.1-0.1c2.8,0.5,5.1,1.7,7,3.6c0,0.1,0,0.1,0,0.1c1.5,2,2.3,4.3,2.5,6.9C199.5,24.5,199.3,27.1,198.7,29.8z"/>
		</g>
		<path class="st0" d="M292,30.1c-0.1-0.1-0.2-0.2-0.3-0.3c-0.1,0-0.2,0-0.3,0c-0.1,0.1-0.2,0.2-0.2,0.3c-0.3,0.9-0.6,1.6-0.7,2.2
			c-0.2,0.6-0.4,1.3-0.7,2.1c-0.1,0.3-0.2,0.6-0.3,0.9c-0.5,1.5-1.2,3.3-2,5.5c-0.8,2.1-1.7,4.1-2.7,5.9c-1,1.8-2,3.1-3.1,3.7l0,0
			c0,0-0.1,0.1-0.2,0.1c-1.2,0.3-2.1-0.3-2.6-1.8c-0.5-1.5-0.8-3.5-0.9-5.8c-0.1-2.3,0-4.5,0.1-6.6c0.1-2.1,0.3-3.5,0.4-4.3
			c0.6-5.9,1.5-11.8,2.8-17.6c0.6-2.9,1.3-5.8,2-8.7c0.1-0.4,0-0.8-0.2-1.2c-0.2-0.4-0.5-0.6-1-0.8c-0.5-0.1-0.9-0.1-1.3,0.1
			c-0.4,0.2-0.7,0.6-0.8,1.1c0,0,0,0,0,0.1l0,0l0,0c0,0.3-0.1,0.7-0.2,1.2c-1.4,6.7-2.8,13.4-4.3,20.1c-0.8,3.4-1.7,6.8-2.7,10.1
			c0,0.1-0.1,0.1-0.1,0.2c-0.1,0-0.1,0-0.2,0c-1.1-0.2-2.2-0.3-3.3-0.1c-1.5,0.3-2.8,1-3.8,2.1c-1,1.2-1.6,2.5-1.9,4
			c-0.2,1.2-0.4,2.4-0.3,3.5c-0.7,1.3-1.5,2.8-2.6,4.5c-1.3,2-2.6,3.3-4.2,3.8l0,0c-0.1,0-0.1,0-0.1,0l0,0c0,0-0.1,0-0.1,0
			c-0.4-0.6-0.6-1.6-0.5-3c0-1.4,0.1-2.8,0.3-4.3c0.2-1.8,0.3-3.1,0.3-4.1l0,0c0,0,0-0.1,0-0.1c0,0,0-0.1,0-0.2
			c0-0.1-0.1-0.2-0.1-0.2c0-0.1-0.1-0.2-0.1-0.2c0,0-0.1,0-0.1-0.1c0,0-0.1-0.1-0.1-0.1c-0.1-0.1-0.2-0.2-0.4-0.2
			c-0.1-0.1-0.3-0.1-0.4-0.1c-0.1,0-0.2,0-0.3,0c-0.1,0-0.1,0,0,0c-0.3,0.1-0.6,0.2-0.7,0.3c-0.3,0.2-0.5,0.3-0.6,0.5
			c-1,1.3-1.8,2.7-2.4,4.2c-0.1,0.1-0.1,0.3-0.2,0.4c-0.6,1.4-1.2,2.8-1.7,4.2c-0.4,1.1-0.9,2.3-1.4,3.4c-0.3,0.7-0.6,1.3-0.9,2
			c0,0.1,0,0.1-0.1,0.1c-0.1,0-0.1,0-0.1,0c0,0,0-0.1-0.1-0.1c0.1-1.1,0.3-2.2,0.4-3.3c0.1-0.9,0.2-1.9,0.3-2.8c0-0.1,0-0.1,0-0.2
			c0.1-0.9,0.2-1.7,0.2-2.6c0,0,0-0.1,0-0.1c0-0.4,0-0.8-0.1-1.3l-0.1-0.4c-0.1-0.2-0.3-0.4-0.6-0.6c-0.8-0.4-1.4-0.4-1.9,0.1
			c-0.5,0.5-0.7,1-0.5,1.7c-0.1,0.8-0.2,1.5-0.2,2.3c-0.4,0.6-0.8,1.2-1.3,1.8c-1.1,1.3-2.4,2.4-3.8,3.4c-0.2,0.1-0.3,0.2-0.5,0.3
			c0,0-0.1,0.1-0.1,0c-0.1,0-0.1-0.1-0.1-0.1c-0.1-1.1-0.5-1.8-1.1-2.2c-0.5-0.2-1-0.1-1.4,0.3c-0.4,0.4-0.6,0.8-0.8,1.2
			c-0.2,0.5-0.3,1.1-0.3,1.6c0,0.6,0.3,1,0.9,1.3c0.3,0.1,0.5,0.1,0.8,0.1c0.1,0,0.1,0,0.2,0c0,0.1,0.1,0.1,0.1,0.2
			c-0.2,1.6-0.6,3-1.2,4.4c-0.6,1.4-1.4,2.2-2.4,2.5l-0.2,0l-0.2,0l-0.2,0c-0.6-0.1-1.1-0.4-1.4-0.9c-0.3-0.6-0.4-1.2-0.5-1.8
			c-0.2-1.7,0.1-3.4,0.9-5.2c0.8-1.8,2-3,3.7-3.5c0.6-0.1,1-0.5,1.3-0.9c0.3-0.5,0.3-1,0.2-1.5c-0.2-0.5-0.5-0.9-0.9-1.2
			c-0.5-0.2-1-0.3-1.5-0.1c-1,0.3-1.8,0.7-2.6,1.3c-1.4,1.1-2.4,2.5-3,4.1c-0.6,1.6-1,3.3-1,5c0,0.2,0,0.3,0,0.5
			c-0.7,1.5-1.5,3-2.2,4.5c-1.3,2.6-2.6,5.2-3.9,7.8c0,0.1-0.1,0.1-0.1,0.1c-0.1,0-0.1,0-0.2,0c-0.1,0-0.1-0.1-0.1-0.2
			c0-0.2,0-0.4,0.1-0.5c0.4-4.4,0.3-8.8-0.3-13.2c-0.2-1.5-0.5-3-1-4.5c-0.2-0.6-0.6-0.9-1.2-1.2c-0.5-0.1-0.9,0-1.4,0.2
			c-0.4,0.3-0.7,0.6-0.8,1.1c-0.5,2.2-1.4,4.8-2.6,8c-1.2,3.2-2.6,5.4-4.2,6.9l-0.2,0.1c-0.3,0.1-0.5,0.1-0.7,0.1c0,0-0.1,0-0.1,0
			c0,0,0,0-0.1-0.1c-0.6-0.8-0.9-2-0.9-3.6c0-1.6,0.1-2.8,0.4-3.9c0.2-0.7,0.1-1.3-0.4-1.8c-0.4-0.4-0.9-0.6-1.5-0.6
			c-0.6,0-1.1,0.4-1.4,1.1c-0.4,1.5-0.6,2.9-0.6,4.4c0,0.1,0,0.2,0,0.3c-0.3,0.7-0.6,1.4-0.9,2c-0.5,1-1.1,2.4-2,4.1
			c-0.9,1.7-1.9,3.2-2.9,4.7c-1.1,1.4-2.2,2.3-3.2,2.5c-0.8,0-1.3-0.4-1.6-1.2c-0.3-0.8-0.4-1.8-0.3-3.1c0-0.1,0-0.1,0.1-0.1
			c2.2-1.1,3.6-2.8,4.4-5c0.6-1.5,0.8-3,0.6-4.6l0,0c0-0.2-0.1-0.4-0.3-0.8c-0.1-0.2-0.3-0.4-0.5-0.5c-0.2-0.2-0.5-0.3-0.7-0.3
			c0,0-0.1,0-0.1,0c0,0-0.1,0-0.1,0c-1.1,0-2,0.4-2.8,1.3c-0.8,0.8-1.4,1.8-1.9,3c-0.5,1.1-0.8,2.2-1,3.1c-0.3,1.4-0.5,2.9-0.4,4.6
			c0.1,1.6,0.5,3,1.4,4.3c0.4,0.5,0.9,0.9,1.5,1.2c0.6,0.2,1.3,0.3,2,0.2c1.5-0.4,2.9-1.7,4.3-3.9c1.3-2.2,2.5-4.6,3.6-7.3
			c0.4-0.9,0.7-1.7,1-2.5c0.1,0.9,0.3,1.8,0.6,2.7c0.5,1.5,1.4,2.6,2.9,3.2c0.3,0.1,0.6,0.1,0.9,0.2c0.8,0,1.5-0.1,2.2-0.4L211,72
			l0.2-0.1l0.1-0.1c1.2-0.8,2.4-2.1,3.4-3.9c1-1.8,1.9-3.7,2.7-5.7c0-0.1,0.1-0.1,0.2-0.2c0.1,0,0.2,0,0.2,0c0.1,0,0.1,0.1,0.1,0.2
			c0.5,5.3,0.4,11.1-0.3,17.3c-3,6.1-5.8,12.3-8.4,18.5c-1.7,4-3.2,8.1-4.3,12.3c0,0.1-0.1,0.2-0.1,0.3c-0.3,1.1-0.5,2.4-0.5,3.9
			c0,1.4,0.5,2.5,1.5,3.1c0,0,0.1,0.1,0.2,0.1l0,0c0.9,0.2,1.7-0.1,2.5-1c0.8-0.9,1.5-2,2.2-3.3c0.6-1.3,1.1-2.4,1.5-3.3
			c0.1-0.2,0.2-0.4,0.3-0.6c1.6-4,2.9-8.1,4-12.3c2-7.3,3.3-14.6,4.2-22l0,0c2.3-4.7,4.6-9.3,7-13.8c0.1,1,0.4,2,0.9,2.9
			c0.8,1.6,2.1,2.4,3.9,2.4c0,0,0,0,0.1,0c0.1,0,0.2,0,0.3,0l0,0c0.1,0,0.2,0,0.3-0.1l0.4-0.1c1.7-0.6,2.8-1.8,3.5-3.5
			c0.7-1.7,1-3.4,1.1-5.1c0-0.4,0-0.9,0-1.4c0-0.1,0.1-0.3,0.2-0.3c1.2-0.8,2.3-1.7,3.3-2.7c0.9-0.9,1.5-1.6,2-2.3
			c-0.2,2.1-0.4,4.2-0.5,6.3c0,0.1,0,0.3,0,0.4c-0.1,1,0,2,0.3,3.1c0.2,0.6,0.5,1,1,1.2c0.5,0.2,1,0.2,1.6,0c0,0,0.1-0.1,0.1-0.1
			c0,0,0.1-0.1,0.1-0.1c0,0,0.1-0.1,0.2-0.1c0,0,0-0.1,0.1-0.1l0,0c0.1-0.1,0.1-0.2,0.2-0.3l0,0c0.3-0.4,0.4-0.9,0.5-1.3
			c0.1-0.6,0.3-1.1,0.5-1.6c0.4-0.9,0.9-1.9,1.5-3.3c0.6-1.3,1.2-2.6,1.7-3.9c0.7-1.5,1.2-2.7,1.6-3.6c0-0.1,0.1-0.1,0.1-0.1
			c0.1,0,0.1,0,0.2,0c0.1,0,0.1,0.1,0.1,0.2c0,2.1,0.3,4,0.8,5.7c0.5,1.8,1.4,2.6,2.8,2.5c0.1,0,0.1,0,0.2-0.1c0,0,0.1,0,0.1,0
			c1.3-0.5,2.5-1.6,3.7-3.3c1-1.5,1.9-3.1,2.8-4.9c0.1,1.3,0.5,2.7,1,4c0.3,0.7,0.7,1.3,1.2,1.9c0.5,0.6,1.2,0.9,2,0.8
			c0.4,0,0.8-0.2,1.1-0.4c0.2-0.2,0.4-0.4,0.5-0.5c0.5-0.7,0.9-1.5,1.2-2.3c0,0,0-0.1,0-0.1c0.7-1.8,1.2-3.6,1.7-5.4
			c0.1-0.2,0.1-0.4,0.1-0.6c0.4-1.3,0.7-2.5,1-3.8c0-0.1,0-0.1,0.1-0.2c0.1,0,0.1,0,0.2,0c0.7,0,1.2-0.2,1.6-0.7
			c0.4-0.5,0.5-1,0.4-1.6c-0.1-0.6-0.5-1-1.2-1.4l0,0l-0.1,0c0.6-2.5,1.2-4.9,1.8-7.4c0.1-0.2,0.1-0.4,0.2-0.7
			c0.1-0.3,0.2-0.6,0.3-0.9c0-0.1,0.1-0.2,0.2-0.2c0.1,0,0.2,0,0.2,0c0.1,0,0.1,0.1,0.1,0.2c-0.4,4.3-0.5,8.3-0.4,12.1
			c0.1,3.8,0.5,6.7,1.4,8.9c0.8,2.2,2.2,3,4,2.4c1.4-0.7,2.7-2.2,3.8-4.5c1.1-2.3,2.1-4.5,2.8-6.5c0.2-0.6,0.4-1,0.5-1.5
			c0.4-1.1,0.8-2.3,1.2-3.4c0.6-1.7,1.2-3.4,1.9-5C292.1,30.3,292.1,30.2,292,30.1z M195.4,66.2C195.5,66.2,195.5,66.1,195.4,66.2
			c0.1-0.1,0.2,0,0.2,0c0,0,0,0.1,0,0.1c-0.2,1.3-0.7,2.6-1.5,3.6c0,0-0.1,0.1-0.1,0.1c0,0-0.1,0-0.1,0c0,0,0-0.1,0-0.1
			C194.3,68.3,194.9,67.1,195.4,66.2z M212.5,104.9c-0.3,0.9-0.7,2.2-1.3,3.9c-0.6,1.7-1.3,3.3-2.1,4.9c-0.8,1.5-1.6,2.5-2.4,2.8
			c0,0-0.1,0-0.1,0c0,0,0,0-0.1,0l0,0c0,0,0,0-0.1,0c-0.4-0.3-0.7-0.8-0.8-1.5c-0.1-0.7-0.1-1.5,0.1-2.3c0.1-0.8,0.2-1.5,0.3-2
			c0,0,0-0.1,0-0.1c0.8-3.4,1.9-6.7,3.2-10c1.3-3.3,2.6-6.5,4-9.7c0.1-0.1,0.1-0.3,0.2-0.4c0.9-2.2,1.9-4.4,3-6.6
			c0-0.1,0.1-0.2,0.2-0.2c0.1,0,0.2,0,0.3,0.1c0.1,0.1,0.1,0.2,0.1,0.3C215.9,92.2,214.3,99.1,212.5,104.9z M236.5,55.6
			c0,0.1-0.1,0.1-0.1,0.1c0,0-0.1,0-0.1,0c-0.1,0-0.2,0-0.3,0c-0.1,0-0.1,0-0.2,0l0,0c0-0.2,0-0.4,0-0.6c0.1-0.2,0.1-0.4,0.2-0.6
			c0.1-0.2,0.2-0.3,0.3-0.5l0,0c0.1,0.4,0.2,0.9,0.2,1.4C236.6,55.4,236.6,55.5,236.5,55.6z M271.5,40.4c-0.1,0.2-0.1,0.4-0.2,0.7
			c-0.6,2-1.3,3.9-2,5.8c-0.4,1-0.8,1.9-1.2,2.8c0,0,0,0,0,0.1c-0.1,0.2-0.2,0.4-0.3,0.6c-0.1,0.1-0.2,0.2-0.3,0.2
			c-0.1,0-0.2-0.1-0.3-0.2c-0.4-1.1-0.6-2.3-0.6-3.6c0-1.3,0.1-2.5,0.4-3.5c0.7-2.6,2.1-3.7,4.3-3.2c0.1,0,0.2,0.1,0.2,0.1
			C271.5,40.3,271.6,40.3,271.5,40.4C271.5,40.4,271.5,40.4,271.5,40.4z"/>
	</g>
</g>
</svg>
