<?xml version="1.0" encoding="utf-8"?>
<!-- Generator: Adobe Illustrator 25.2.1, SVG Export Plug-In . SVG Version: 6.00 Build 0)  -->
<svg version="1.1" id="Layer_1" xmlns="http://www.w3.org/2000/svg" xmlns:xlink="http://www.w3.org/1999/xlink" x="0px" y="0px"
	 viewBox="0 0 360 117.8" style="enable-background:new 0 0 360 117.8;" xml:space="preserve">
<style type="text/css">
	.st0{fill:#7C8284;}
	.st1{fill:#CB4E22;}
</style>
<g>
	<g>
		<g>
			<path class="st0" d="M140.7,50.6c3.3-2,6.7-4,10.1-5.9c1.3-0.7,2.9-1.5,4.8-2.4c1.9-0.9,3.8-1.6,5.7-2.2c1.9-0.6,3.6-0.8,5.1-0.7
				c0.6,0.1,1.1,0.3,1.4,0.7c0.3,0.1,0.6,0.2,0.8,0.1c0.3-0.1,0.5-0.2,0.6-0.5c0.1-0.3,0.2-0.5,0.1-0.8c-0.1-0.3-0.2-0.5-0.5-0.7
				c-0.8-0.4-1.6-0.6-2.4-0.6c-1.5,0-3.2,0.3-5.1,1s-3.9,1.6-5.9,2.5c-2,1-3.8,1.9-5.4,2.8c-0.5,0.3-1,0.5-1.5,0.8
				c-2.3,1.2-4.5,2.5-6.7,3.8c-0.2,0.1-0.4,0.1-0.6,0c-0.2-0.1-0.3-0.3-0.2-0.5c0.1-0.5,0.2-1,0.3-1.5c0.1-0.4,0-0.8-0.3-1.1
				c-0.2-0.3-0.6-0.5-1-0.5c-0.4,0-0.7,0.1-0.9,0.4c-0.3,0.2-0.4,0.5-0.4,0.9c-0.1,1.5-0.1,2.9-0.2,4.4c-0.6,0.4-1.2,0.7-1.8,1.1
				c-3.1,1.8-6.3,3.6-9.4,5.4c-1.3,0.7-2.6,1.5-4,2.2c-2.2-0.4-4.6,0.3-7.1,2c-1.1,0.8-2.1,1.7-3.1,2.7c-0.4,0.4-0.5,0.9-0.3,1.5
				c0.1,0.3,0.4,0.6,0.7,0.8c0.3,0.2,0.6,0.2,1,0.2l0.3,0l0,0c1.3-0.5,2.5-1.1,3.6-1.7c2.1-1.2,4.2-2.5,6.2-3.8
				c0.8,0.2,1.6,0.6,2.5,1.1c2.5,1.8,4.5,4.2,5.9,7.1c1.4,2.9,2.4,5.9,2.9,9.1c-0.6,7.2-1.1,14.3-1.5,21.5c-0.1,1.5-0.2,3-0.3,4.5
				c0,0.5,0.2,0.9,0.5,1.1c0.4,0.2,0.7,0.3,1.1,0.2c0.4-0.1,0.7-0.4,0.8-0.9c0.8-4,1.3-8,1.4-12.1c0.1-4.1-0.2-8.1-1-12.1
				c0.1-1.6,0.2-3.3,0.3-4.9C138.2,67,139.2,58.8,140.7,50.6z M136.8,91.3c0-1.5,0.1-3,0.1-4.5C137,88.3,136.9,89.8,136.8,91.3z
				 M137.3,65.4c-0.2,2.1-0.4,4.1-0.6,6.1c-0.1,1.5-0.3,2.9-0.4,4.3c-0.9-3-2.1-5.9-3.6-8.7c-0.9-1.6-1.9-3-3-4.2
				c-1.1-1.2-2.4-2.2-3.7-2.8l0,0c0.4-0.2,0.8-0.5,1.1-0.7c0.4-0.2,0.8-0.5,1.2-0.8c0.8-0.5,1.5-1,2.3-1.5c2.6-1.7,5.3-3.4,8-5.1
				c0,0.5-0.1,1-0.1,1.5C138.1,57.5,137.7,61.4,137.3,65.4z"/>
			<path class="st0" d="M159.5,74.8c-0.4-0.3-0.7-0.4-1-0.2c-0.3,0.1-0.6,0.4-0.7,0.9c-0.1,0.5-0.2,1-0.1,1.5c0.1,0.5,0.4,0.8,0.8,1
				c0.4,0.2,0.8,0.3,1.3,0.3c0.2,0,0.4-0.1,0.4-0.4c0-0.3,0-0.6,0-0.9c0-0.3-0.1-0.6-0.1-0.8C160.1,75.5,159.9,75.1,159.5,74.8z"/>
			<path class="st0" d="M239.4,48c-0.7-1.6-1.7-2.9-3.2-3.7c-1.4-0.8-3-1.3-4.7-1.5c-2.5-0.2-5,0.1-7.4,0.9
				c-2.5,0.8-4.8,1.8-7.1,3.2c-2.3,1.3-4.4,2.7-6.3,4.2c-2.7,2.1-5.2,4.5-7.7,7.2c-2.4,2.6-4.5,5.5-6.3,8.6
				c-1.6,2.8-2.8,5.8-3.6,8.9c-0.6,0.6-1.5,1.1-2.6,1.6c-1.4,0.6-2.7,0.8-3.8,0.7c-0.6-0.1-1-0.3-1.2-0.6c0,0,0,0,0-0.1
				c0.1-0.3,0.2-0.6,0.2-0.9c0.6-2.2,1.3-4.3,2.1-6.3c0.1-0.4,0.1-0.7-0.1-1c-0.2-0.3-0.5-0.4-0.8-0.4c-0.3,0-0.6,0.2-0.9,0.5
				c0,0,0,0,0,0.1c0,0,0,0,0,0.1l0,0c0,0.1-0.1,0.1-0.1,0.2c-0.4,0.8-0.7,1.7-1.1,2.7c-0.4,1.1-0.6,2.1-0.7,3.1l0,0
				c-0.1,0.5-0.3,1-0.4,1.5c-0.3,1.3-0.7,2.6-1,3.8c-0.1,0.5-0.3,1-0.5,1.5c-0.1,0.1-0.2,0.1-0.2,0c-0.2-2.5,0-5.9,0.4-10.3
				c0.2-0.5,0.3-1,0.5-1.5c1.1-3.3,2.2-6.7,3.1-10.1c0.5-1.7,0.9-3.4,1.2-5.2c0-0.1,0-0.2,0-0.3c0.1-0.4,0.2-0.9,0.2-1.4
				c0-0.5,0-1-0.1-1.4c-0.1-0.4-0.5-0.6-1-0.6l-0.1,0c-0.8,0.2-1.6,1.2-2.3,3.2c-0.7,2-1.3,4.3-1.8,7c-0.5,2.7-0.9,5.2-1.2,7.6
				c-0.3,2.4-0.5,4-0.5,4.9c-0.1,0.6-0.1,1.3-0.2,1.9c-0.2,0.5-0.4,0.9-0.6,1.4c-0.5,1-1.1,2.2-2,3.6c-0.9,1.4-1.8,2.3-2.8,2.6l0,0
				c0,0-0.1,0-0.1,0l0,0c0,0,0,0-0.1,0c-0.3-0.4-0.4-1.1-0.4-2c0-1,0.1-1.9,0.2-3c0.2-1.2,0.2-2.1,0.2-2.8l0,0c0,0,0,0,0-0.1
				c0,0,0-0.1,0-0.1c0-0.1,0-0.1-0.1-0.2c0-0.1-0.1-0.1-0.1-0.2c0,0,0,0-0.1-0.1c0,0-0.1-0.1-0.1-0.1c-0.1-0.1-0.1-0.1-0.2-0.1
				c-0.1,0-0.2-0.1-0.3-0.1c-0.1,0-0.1,0-0.2,0c0,0,0,0,0,0c-0.2,0-0.4,0.1-0.5,0.2c-0.2,0.1-0.3,0.2-0.4,0.3
				c-0.7,0.9-1.3,1.8-1.7,2.9c0,0.1-0.1,0.2-0.1,0.3c-0.4,1-0.8,1.9-1.2,2.9c-0.3,0.8-0.6,1.5-0.9,2.3c-0.2,0.5-0.4,0.9-0.6,1.4
				c0,0,0,0.1-0.1,0.1c0,0-0.1,0-0.1,0c0,0,0-0.1,0-0.1c0.1-0.8,0.2-1.5,0.3-2.3c0.1-0.7,0.2-1.3,0.2-2c0,0,0-0.1,0-0.1
				c0.1-0.6,0.1-1.2,0.2-1.8c0,0,0,0,0-0.1c0-0.3,0-0.6-0.1-0.9l-0.1-0.3c-0.1-0.2-0.2-0.3-0.4-0.4c-0.5-0.3-1-0.3-1.3,0.1
				c-0.4,0.3-0.5,0.7-0.4,1.2c-0.1,0.8-0.2,1.5-0.2,2.3c-0.2,0.4-0.4,0.8-0.7,1.3c-0.9,1.7-1.9,3.3-2.9,4.9c-1,1.5-1.9,2.5-2.7,2.8
				c0,0,0,0,0,0c-0.1-0.1-0.2-0.1-0.2-0.2c-0.4-1-0.5-2.3-0.3-3.9c0.2-1.6,0.6-2.9,1.2-3.7c0.2-0.3,0.3-0.6,0.2-0.9
				c0-0.3-0.2-0.6-0.5-0.8c-0.3-0.2-0.6-0.3-0.9-0.2c-0.3,0-0.6,0.2-0.8,0.5c-0.7,1.1-1.1,2.2-1.3,3.4c-0.1,0.7-0.2,1.3-0.2,2
				c-0.4,0.9-0.9,1.9-1.4,2.7c-0.7,1.2-1.4,2.1-2.2,2.6c-0.1,0-0.2,0.1-0.2,0.1c-0.6,0.1-0.9-0.2-1.1-0.7c-0.1-0.6-0.2-1.3-0.1-2.1
				c0.1-0.8,0.2-1.6,0.3-2.3c0.1-0.5,0.1-0.8,0.1-1.1c0.1-0.5,0.1-1,0.1-1.5l0,0c0-0.2,0-0.5,0-0.8c0-0.3-0.1-0.5-0.2-0.8
				c-0.2-0.3-0.4-0.5-0.7-0.6c-0.3-0.1-0.6-0.1-0.9,0c-1,0.4-1.8,1.4-2.3,2.9c-0.5,1.5-0.9,2.9-1.1,4.3c-0.1,0.4-0.2,0.8-0.3,1.1
				c-0.3,1.7-0.7,3.3-1.2,5c0,0.2-0.1,0.3-0.1,0.5c-0.1,0.4-0.2,0.9-0.4,1.3c-0.4-1.9-0.4-5-0.1-9.3c0.3-4.3,0.9-8.5,1.6-12.6
				c0.7-4.1,1.5-6.8,2.2-8c0.4-0.2,0.7-0.5,0.8-1c0.1-0.4-0.1-0.8-0.4-1.2c-0.3-0.2-0.6-0.3-0.9-0.3c-0.3,0-0.6,0.2-0.9,0.4
				c-0.1,0.1-0.1,0.1-0.2,0.2c0,0-0.1,0.1-0.2,0.2c-0.5,0.6-0.9,1.4-1,2.1c0,0,0,0.1-0.1,0.2c-0.2,0.7-0.4,1.4-0.5,2.1
				c-1.3,6.8-2,13.7-2.1,20.6c0,0.2,0,0.4,0,0.6c0,1.2,0,2.5,0.1,3.9c0.1,1.5,0.4,2.6,0.8,3.4c0.1,0.2,0.3,0.4,0.6,0.5
				c0.3,0.1,0.5,0.1,0.7-0.1c0,0,0,0,0,0c0,0,0,0,0,0c0.1,0,0.1-0.1,0.1-0.2c0.2-0.5,0.4-1,0.5-1.5c0-0.2,0.1-0.3,0.1-0.5
				c0.1-0.5,0.4-1.4,0.7-2.5c0.3-1.2,0.6-2.4,1-3.7c0.4-1.3,0.7-2.4,0.9-3.4c0.3-1,0.4-1.5,0.5-1.7c0,1.1,0.1,2.2,0.3,3.4
				c0.2,1.2,0.5,2.2,1,3c0.5,0.8,1.2,1.1,2.2,0.9c0.1,0,0.3-0.1,0.4-0.2c0.9-0.7,1.8-1.9,2.7-3.7c0.2-0.3,0.3-0.7,0.5-1
				c0.1,1,0.2,1.9,0.6,2.7c0.2,0.5,0.5,1,1,1.3c0.4,0.3,1,0.4,1.6,0.2c0.1,0,0.2-0.1,0.3-0.1c0.6-0.4,1.1-0.9,1.5-1.6
				c0.3-0.5,0.6-0.9,0.9-1.4c1.1-1.9,2.1-3.8,3.1-5.8c-0.1,1-0.2,2-0.2,3c0,0.1,0,0.2,0,0.3c0,0.7,0,1.4,0.2,2.1
				c0.1,0.4,0.3,0.7,0.7,0.8c0.3,0.2,0.7,0.1,1.1,0c0,0,0.1-0.1,0.1-0.1c0,0,0.1-0.1,0.1-0.1c0,0,0.1,0,0.1-0.1c0,0,0,0,0,0l0,0
				c0.1-0.1,0.1-0.1,0.1-0.2l0,0c0.2-0.3,0.3-0.6,0.4-0.9c0.1-0.4,0.2-0.8,0.4-1.1c0.3-0.6,0.6-1.3,1-2.2c0.4-0.9,0.8-1.8,1.2-2.7
				c0.5-1,0.8-1.9,1.1-2.5c0,0,0.1-0.1,0.1-0.1c0,0,0.1,0,0.1,0c0,0,0.1,0.1,0.1,0.1c0,1.4,0.2,2.7,0.6,3.9c0.4,1.2,1,1.8,1.9,1.7
				c0,0,0.1,0,0.1,0c0,0,0,0,0.1,0c0.9-0.3,1.7-1.1,2.5-2.3c0.8-1.2,1.5-2.5,2.2-3.9c0.1-0.3,0.3-0.6,0.4-0.9
				c-0.1,1.2-0.1,2.5-0.1,3.7c0,0,0,0,0,0.1c0,0.9,0.1,1.8,0.3,2.8c0.1,0.5,0.4,0.9,0.8,1.1c0.4,0.2,0.8,0.2,1.3-0.2
				c0.5-0.5,0.8-1.1,1-1.7c0,0,0-0.1,0-0.1c0.6-1.5,1.1-3,1.5-4.6c0-0.1,0-0.1,0-0.2c0,0,0.1,0.1,0.2,0.1c1.2,0.5,2.6,0.5,4.1-0.1
				c1.4-0.5,2.5-1.1,3.4-1.8c-0.3,1.5-0.4,3-0.4,4.5c-0.1,3.2,0.5,6.1,1.7,8.9c1.2,2.8,3.1,5.1,5.8,6.9c1.9,1.3,3.9,2.2,6.1,2.8
				c2.2,0.6,4.4,0.9,6.7,0.9c0.3,0,0.5,0,0.8,0c0.2,0,0.4,0.1,0.5,0.2c0.1,0.1,0.2,0.3,0.2,0.5c0,1.9,0.2,3.8,0.4,5.6
				c0,0.1,0,0.3,0.1,0.4c0.1,0.6,0.2,1.2,0.4,1.8c0.2,0.6,0.5,1.1,1,1.4c0,0,0.1,0,0.1,0c0.4,0.1,0.6,0,0.8-0.2
				c0.2-0.3,0.3-0.5,0.2-0.9c0-0.3-0.2-0.6-0.6-0.7c-0.3-0.6-0.6-1.3-0.8-2c-0.4-1.8-0.7-3.7-0.8-5.5c0-0.2,0-0.3,0.2-0.5
				c0.1-0.1,0.3-0.2,0.4-0.3c0.5-0.1,1.1-0.2,1.6-0.4c0.1-0.1,0.2-0.2,0.2-0.3c0-0.1,0-0.2-0.1-0.3c-0.1-0.1-0.2-0.1-0.3,0
				c-0.4,0.2-0.8,0.3-1.3,0.3c-0.2,0-0.4,0-0.5-0.1c-0.2-0.1-0.2-0.3-0.2-0.5c0-0.6-0.1-1.2-0.1-1.8c0-2.2,0-4.4,0-6.6
				c0,0.4,0.1,0.9,0.1,1.3c0.1,0.9,0.3,1.8,0.5,2.8c0.3,1,0.7,1.8,1.4,2.5c0.5,0.4,1,0.6,1.7,0.6c0.6,0,1.3-0.1,1.8-0.3
				c2-0.8,3.7-2.2,5.2-4.2c1.5-1.9,2.6-3.9,3.2-6c0.6-1.7,0.7-3.4,0.3-5c-0.4-1.6-1.5-2.7-3.3-3.5l0,0c-0.3-0.1-0.4-0.3-0.4-0.6
				c0-0.3,0.1-0.5,0.3-0.6c2.8-2,5.3-4.4,7.4-7.2c2.1-2.8,3.8-5.8,5.1-9c0.9-2.1,1.5-4.4,1.8-6.8C240.4,52.6,240.2,50.3,239.4,48z
				 M184.3,59.6c0.5-2.5,1-4.4,1.6-5.7c0-0.1,0.1-0.1,0.2-0.2c0.1,0,0.2,0,0.2,0.1c0.1,0.1,0.1,0.1,0.1,0.2c0,0.2,0,0.4,0,0.6
				c0,0.1,0,0.3,0,0.4c-0.1,0.6-0.2,1.1-0.3,1.7c-0.8,3.7-1.7,7.3-2.9,10.9c0,0,0,0.1-0.1,0.1c0,0-0.1,0-0.1,0c0,0,0-0.1,0-0.1
				C183.3,64.8,183.7,62.1,184.3,59.6z M237.8,56.4c-0.4,1.7-0.9,3.2-1.4,4.6c-1.7,4-4,7.6-6.9,10.8c-3,3.2-6.5,5.6-10.6,7.1
				c-0.5,0.2-0.8,0.5-0.8,0.9c-0.1,0.4,0,0.8,0.3,1.1c0.3,0.3,0.7,0.4,1.2,0.4c1-0.3,2-0.4,3-0.5c1-0.1,2,0,2.9,0.2
				c1,0.3,1.7,0.8,2.1,1.6c0.4,0.8,0.6,1.6,0.5,2.6c-0.1,1.4-0.4,2.7-1,4c-0.5,1.3-1.2,2.5-2.1,3.6c-0.7,1-1.7,2-2.8,3
				c-1.1,0.9-2.4,1.4-3.7,1.3c0,0-0.1,0-0.1,0c-0.7-0.2-1.3-0.7-1.7-1.7c-0.4-0.9-0.6-1.9-0.7-3c-0.1-1.1-0.2-1.9-0.2-2.6
				c-0.1-3.6,0.1-7.2,0.6-10.8c0.4-3.6,1-7.2,1.7-10.7c0.5-2.8,1.1-5.7,1.8-8.5c0.1-0.3,0-0.6-0.1-0.8c-0.1-0.2-0.3-0.4-0.6-0.6
				c-0.3-0.1-0.6-0.1-0.9,0c-0.3,0.1-0.5,0.3-0.6,0.6c-0.8,2.1-1.3,4.2-1.6,6.4c-0.8,5.3-1.3,10.6-1.5,15.9
				c-0.2,5.3-0.2,10.6-0.1,16c0,0.4,0,0.7,0,1.1c0,0.3,0,0.6,0,0.8c0,0.2-0.1,0.4-0.2,0.5c-0.1,0.1-0.3,0.2-0.5,0.2
				c-4.8,0.1-9.2-1.1-13.1-3.8c-2.8-2-4.8-4.6-5.8-7.6c-1-3.1-1.4-6.3-1-9.6c0.5-4,1.9-7.7,4-11.2c2.1-3.5,4.6-6.7,7.4-9.5
				c3-3.1,6.3-5.9,10.1-8.4c3.8-2.5,7.7-4.2,12-5.1c1.7-0.3,3.3-0.3,5.1,0c1.7,0.3,3.2,1,4.4,2.3c0,0,0,0.1,0,0.1
				c0.9,1.3,1.4,2.7,1.5,4.3C238.4,53.1,238.2,54.7,237.8,56.4z"/>
		</g>
		<path class="st0" d="M296.5,56.6c0-0.1-0.1-0.1-0.2-0.2c-0.1,0-0.2,0-0.2,0c-0.1,0-0.1,0.1-0.1,0.2c-0.2,0.6-0.3,1-0.5,1.4
			c-0.1,0.4-0.3,0.8-0.4,1.3c0,0.2-0.1,0.4-0.2,0.6c-0.3,1-0.7,2.1-1.2,3.4c-0.5,1.3-1.1,2.6-1.7,3.7c-0.6,1.2-1.3,1.9-1.9,2.3l0,0
			c0,0-0.1,0-0.1,0c-0.8,0.2-1.3-0.2-1.6-1.2c-0.3-1-0.5-2.2-0.5-3.6c0-1.5,0-2.9,0.1-4.2c0.1-1.3,0.2-2.2,0.2-2.7
			c0.4-3.7,1-7.4,1.7-11.1c0.4-1.8,0.8-3.6,1.3-5.5c0.1-0.3,0-0.5-0.1-0.8c-0.1-0.2-0.3-0.4-0.6-0.5c-0.3-0.1-0.6-0.1-0.8,0.1
			c-0.3,0.1-0.4,0.4-0.5,0.7c0,0,0,0,0,0l0,0l0,0c0,0.2-0.1,0.4-0.1,0.7c-0.9,4.2-1.8,8.4-2.7,12.6c-0.5,2.1-1,4.3-1.7,6.4
			c0,0,0,0.1-0.1,0.1c0,0-0.1,0-0.1,0c-0.7-0.1-1.4-0.2-2.1-0.1c-1,0.2-1.8,0.6-2.4,1.3c-0.6,0.7-1,1.6-1.2,2.5
			c-0.2,0.7-0.2,1.5-0.2,2.2c-0.4,0.8-0.9,1.8-1.6,2.8c-0.8,1.3-1.7,2.1-2.6,2.4l0,0c0,0-0.1,0-0.1,0l0,0c0,0,0,0-0.1,0
			c-0.2-0.4-0.4-1-0.3-1.9c0-0.9,0.1-1.8,0.2-2.7c0.1-1.1,0.2-2,0.2-2.6l0,0c0,0,0,0,0-0.1c0,0,0-0.1,0-0.1c0,0,0-0.1-0.1-0.1
			c0-0.1-0.1-0.1-0.1-0.1c0,0,0,0-0.1-0.1c0,0-0.1-0.1-0.1-0.1c-0.1-0.1-0.1-0.1-0.2-0.1c-0.1,0-0.2-0.1-0.3-0.1c-0.1,0-0.1,0-0.2,0
			c0,0,0,0,0,0c-0.2,0-0.4,0.1-0.5,0.2c-0.2,0.1-0.3,0.2-0.4,0.3c-0.6,0.8-1.2,1.7-1.5,2.6c0,0.1-0.1,0.2-0.1,0.3
			c-0.4,0.9-0.7,1.8-1.1,2.7c-0.3,0.7-0.6,1.4-0.9,2.1c-0.2,0.4-0.4,0.8-0.5,1.2c0,0,0,0.1-0.1,0.1c0,0-0.1,0-0.1,0c0,0,0,0,0-0.1
			c0.1-0.7,0.2-1.4,0.3-2.1c0.1-0.6,0.1-1.2,0.2-1.8c0,0,0-0.1,0-0.1c0.1-0.5,0.1-1.1,0.2-1.7c0,0,0,0,0-0.1c0-0.3,0-0.5-0.1-0.8
			l-0.1-0.2c-0.1-0.1-0.2-0.3-0.4-0.4c-0.5-0.3-0.9-0.2-1.2,0.1c-0.3,0.3-0.4,0.7-0.3,1.1c0,0.5-0.1,1-0.2,1.5
			c-0.2,0.4-0.5,0.8-0.8,1.1c-0.7,0.8-1.5,1.5-2.4,2.1c-0.1,0.1-0.2,0.1-0.3,0.2c0,0-0.1,0-0.1,0c0,0-0.1,0-0.1-0.1
			c-0.1-0.7-0.3-1.1-0.7-1.4c-0.3-0.1-0.6,0-0.9,0.2c-0.2,0.2-0.4,0.5-0.5,0.8c-0.1,0.3-0.2,0.7-0.2,1c0,0.4,0.2,0.6,0.5,0.8
			c0.2,0,0.3,0.1,0.5,0.1c0,0,0.1,0,0.1,0c0,0,0,0.1,0,0.1c-0.1,1-0.4,1.9-0.7,2.8c-0.4,0.9-0.9,1.4-1.5,1.6l-0.1,0l-0.1,0l-0.1,0
			c-0.4,0-0.7-0.2-0.9-0.6c-0.2-0.4-0.3-0.7-0.3-1.1c-0.1-1,0.1-2.1,0.6-3.3c0.5-1.1,1.3-1.9,2.3-2.2c0.4-0.1,0.6-0.3,0.8-0.6
			c0.2-0.3,0.2-0.6,0.1-1c-0.1-0.3-0.3-0.6-0.6-0.7c-0.3-0.2-0.6-0.2-0.9-0.1c-0.6,0.2-1.2,0.5-1.6,0.8c-0.9,0.7-1.5,1.6-1.9,2.6
			c-0.4,1-0.6,2.1-0.6,3.1c0,0.1,0,0.2,0,0.3c-0.5,0.9-0.9,1.9-1.4,2.8c-0.8,1.6-1.6,3.3-2.5,4.9c0,0-0.1,0.1-0.1,0.1
			c0,0-0.1,0-0.1,0c0,0-0.1-0.1-0.1-0.1c0-0.1,0-0.2,0-0.3c0.2-2.8,0.2-5.5-0.2-8.3c-0.1-0.9-0.3-1.9-0.6-2.8
			c-0.1-0.3-0.4-0.6-0.7-0.7c-0.3-0.1-0.6,0-0.9,0.1c-0.3,0.2-0.4,0.4-0.5,0.7c-0.3,1.4-0.9,3-1.6,5c-0.8,2-1.6,3.4-2.6,4.3
			l-0.1,0.1c-0.2,0.1-0.3,0.1-0.4,0.1c0,0,0,0,0,0c0,0,0,0-0.1,0c-0.4-0.5-0.6-1.3-0.6-2.2c0-1,0-1.8,0.2-2.4c0.1-0.5,0-0.8-0.2-1.1
			c-0.3-0.3-0.6-0.4-1-0.4c-0.4,0-0.7,0.3-0.9,0.7c-0.3,0.9-0.4,1.8-0.4,2.8c0,0.1,0,0.1,0,0.2c-0.2,0.4-0.4,0.9-0.5,1.3
			c-0.3,0.6-0.7,1.5-1.3,2.6c-0.6,1.1-1.2,2-1.8,2.9c-0.7,0.9-1.4,1.4-2,1.6c-0.5,0-0.8-0.2-1-0.8c-0.2-0.5-0.2-1.2-0.2-2
			c0,0,0-0.1,0.1-0.1c1.4-0.7,2.3-1.7,2.8-3.2c0.4-0.9,0.5-1.9,0.4-2.9l0,0c0-0.1-0.1-0.3-0.2-0.5c-0.1-0.1-0.2-0.2-0.3-0.3
			c-0.1-0.1-0.3-0.2-0.5-0.2c0,0,0,0-0.1,0c0,0,0,0-0.1,0c-0.7,0-1.3,0.3-1.7,0.8c-0.5,0.5-0.9,1.2-1.2,1.9
			c-0.3,0.7-0.5,1.4-0.6,1.9c-0.2,0.9-0.3,1.9-0.3,2.9c0,1,0.3,1.9,0.9,2.7c0.2,0.3,0.6,0.6,1,0.7c0.4,0.1,0.8,0.2,1.2,0.1
			c0.9-0.3,1.8-1.1,2.7-2.5c0.8-1.4,1.6-2.9,2.3-4.6c0.2-0.6,0.4-1.1,0.6-1.6c0.1,0.6,0.2,1.1,0.4,1.7c0.3,0.9,0.9,1.6,1.8,2
			c0.2,0,0.4,0.1,0.5,0.1c0.5,0,1-0.1,1.4-0.3l0.2-0.1l0.1-0.1l0.1-0.1c0.8-0.5,1.5-1.3,2.1-2.5c0.6-1.1,1.2-2.3,1.7-3.6
			c0-0.1,0.1-0.1,0.1-0.1c0.1,0,0.1,0,0.2,0c0,0,0.1,0.1,0.1,0.1c0.3,3.4,0.3,7-0.2,10.9c-1.9,3.9-3.7,7.7-5.3,11.6
			c-1.1,2.5-2,5.1-2.7,7.7c0,0,0,0.1,0,0.2c-0.2,0.7-0.3,1.5-0.3,2.4c0,0.9,0.3,1.6,1,1.9c0,0,0.1,0,0.1,0l0,0
			c0.5,0.1,1.1-0.1,1.6-0.6c0.5-0.6,1-1.3,1.4-2.1c0.4-0.8,0.7-1.5,0.9-2.1c0.1-0.1,0.1-0.3,0.2-0.4c1-2.5,1.8-5.1,2.5-7.8
			c1.2-4.6,2.1-9.2,2.6-13.9l0,0c1.4-2.9,2.9-5.8,4.4-8.7c0.1,0.6,0.3,1.2,0.6,1.8c0.5,1,1.3,1.5,2.5,1.5c0,0,0,0,0,0
			c0.1,0,0.1,0,0.2,0l0,0c0.1,0,0.1,0,0.2,0l0.2-0.1c1.1-0.4,1.8-1.1,2.2-2.2c0.4-1.1,0.7-2.1,0.7-3.2c0-0.2,0-0.5,0-0.9
			c0-0.1,0-0.2,0.1-0.2c0.7-0.5,1.4-1,2.1-1.7c0.6-0.6,1-1,1.3-1.4c-0.2,1.3-0.3,2.6-0.3,3.9c0,0.1,0,0.2,0,0.3c0,0.6,0,1.3,0.2,1.9
			c0.1,0.4,0.3,0.6,0.6,0.7c0.3,0.1,0.6,0.1,1,0c0,0,0.1,0,0.1-0.1c0,0,0.1-0.1,0.1-0.1s0.1,0,0.1-0.1c0,0,0,0,0,0l0,0
			c0-0.1,0.1-0.1,0.1-0.2l0,0c0.2-0.3,0.3-0.6,0.3-0.8c0.1-0.4,0.2-0.7,0.3-1c0.3-0.5,0.6-1.2,0.9-2c0.4-0.8,0.7-1.7,1.1-2.5
			c0.4-1,0.8-1.7,1-2.3c0,0,0.1-0.1,0.1-0.1c0,0,0.1,0,0.1,0c0,0,0.1,0.1,0.1,0.1c0,1.3,0.2,2.5,0.5,3.6c0.3,1.1,0.9,1.6,1.7,1.5
			c0,0,0.1,0,0.1,0c0,0,0,0,0,0c0.8-0.3,1.6-1,2.3-2.1c0.6-0.9,1.2-2,1.8-3.1c0.1,0.8,0.3,1.7,0.6,2.5c0.2,0.4,0.4,0.8,0.8,1.2
			c0.3,0.4,0.8,0.5,1.3,0.5c0.3,0,0.5-0.1,0.7-0.3c0.2-0.1,0.3-0.2,0.3-0.3c0.3-0.5,0.6-1,0.7-1.5c0,0,0,0,0-0.1
			c0.4-1.1,0.8-2.3,1-3.4c0-0.1,0.1-0.3,0.1-0.4c0.2-0.8,0.4-1.6,0.6-2.4c0-0.1,0-0.1,0.1-0.1c0,0,0.1,0,0.1,0c0.4,0,0.8-0.1,1-0.4
			c0.2-0.3,0.3-0.6,0.2-1c-0.1-0.4-0.3-0.7-0.8-0.9l0,0l0,0c0.4-1.6,0.7-3.1,1.1-4.6c0-0.1,0.1-0.3,0.1-0.4c0.1-0.2,0.1-0.4,0.2-0.6
			c0-0.1,0.1-0.1,0.1-0.1c0,0,0.1,0,0.1,0c0,0,0.1,0.1,0.1,0.1c-0.2,2.7-0.3,5.2-0.3,7.6c0.1,2.4,0.3,4.2,0.9,5.6
			c0.5,1.4,1.4,1.9,2.5,1.5c0.9-0.4,1.7-1.4,2.4-2.8c0.7-1.5,1.3-2.8,1.7-4.1c0.1-0.3,0.2-0.7,0.3-0.9c0.3-0.7,0.5-1.4,0.8-2.2
			c0.4-1.1,0.8-2.1,1.2-3.1C296.6,56.8,296.5,56.7,296.5,56.6z M235.8,79.3C235.8,79.3,235.8,79.3,235.8,79.3c0.1,0,0.1,0,0.1,0
			c0,0,0,0,0,0.1c-0.1,0.8-0.4,1.6-0.9,2.3c0,0-0.1,0-0.1,0c0,0,0,0-0.1,0c0,0,0,0,0-0.1C235.1,80.7,235.4,79.9,235.8,79.3z
			 M246.5,103.7c-0.2,0.6-0.5,1.4-0.8,2.5c-0.4,1.1-0.8,2.1-1.3,3.1c-0.5,1-1,1.5-1.5,1.8c0,0,0,0-0.1,0c0,0,0,0,0,0l0,0
			c0,0,0,0,0,0c-0.3-0.2-0.4-0.5-0.5-0.9c0-0.5,0-0.9,0-1.4c0.1-0.5,0.1-0.9,0.2-1.2c0,0,0,0,0-0.1c0.5-2.1,1.2-4.2,2-6.3
			c0.8-2.1,1.6-4.1,2.5-6.1c0-0.1,0.1-0.2,0.1-0.3c0.6-1.4,1.2-2.8,1.9-4.2c0-0.1,0.1-0.1,0.1-0.1c0.1,0,0.1,0,0.2,0.1
			c0.1,0,0.1,0.1,0.1,0.2C248.6,95.7,247.7,100,246.5,103.7z M261.6,72.6C261.6,72.7,261.6,72.7,261.6,72.6
			c-0.1,0.1-0.1,0.1-0.2,0.1c-0.1,0-0.1,0-0.2,0c-0.1,0-0.1,0-0.1,0l0,0c0-0.1,0-0.2,0-0.4c0-0.1,0.1-0.3,0.1-0.4
			c0.1-0.1,0.1-0.2,0.2-0.3l0,0c0.1,0.2,0.1,0.5,0.1,0.9C261.7,72.6,261.6,72.6,261.6,72.6z M283.6,63.1c0,0.1-0.1,0.3-0.1,0.4
			c-0.4,1.2-0.8,2.5-1.3,3.7c-0.2,0.6-0.5,1.2-0.8,1.8c0,0,0,0,0,0c-0.1,0.1-0.1,0.3-0.2,0.4c0,0.1-0.1,0.1-0.2,0.1
			c-0.1,0-0.1,0-0.2-0.1c-0.2-0.7-0.4-1.4-0.4-2.3c0-0.8,0.1-1.6,0.3-2.2c0.4-1.6,1.4-2.3,2.7-2c0.1,0,0.1,0,0.1,0.1
			C283.6,63,283.6,63.1,283.6,63.1C283.6,63.1,283.6,63.1,283.6,63.1z"/>
	</g>
</g>
<g>
	<g>
		<path class="st1" d="M88.5,15.1l-7.7,22.3H75l-7.7-22.3h5.8L78,30.2l4.9-15.1c0,0,3.2-10.7,10.7-9.1C91.1,8.1,88.5,15.1,88.5,15.1
			"/>
	</g>
	<polygon class="st1" points="198.5,15.3 198.5,37.8 213.6,37.8 213.6,33.5 204.1,33.5 204.1,27.8 212.9,27.8 212.9,23.6 
		204.1,23.6 204.1,19.6 213.6,19.6 213.6,15.3 	"/>
	<g>
		<path class="st1" d="M194.2,36.5c-1,0.4-2.3,0.8-3.8,1.2c-1.6,0.4-3.1,0.6-4.6,0.6c-3.5,0-6.3-1-8.4-3c-2.1-2-3.1-4.9-3.1-8.7
			c0-3.5,1-6.3,3.1-8.5c2.1-2.1,5-3.2,8.6-3.2c1.9,0,3.4,0.2,4.6,0.5c1.2,0.4,2.4,0.8,3.6,1.4v5.3h-0.5c-0.3-0.2-0.7-0.5-1.2-0.9
			c-0.5-0.4-1-0.7-1.5-1c-0.6-0.3-1.2-0.6-2-0.8c-0.7-0.2-1.5-0.3-2.3-0.3c-1,0-1.8,0.1-2.6,0.5c-0.8,0.3-1.5,0.8-2.1,1.4
			c-0.6,0.6-1.1,1.4-1.4,2.3c-0.3,0.9-0.5,2-0.5,3.2c0,2.6,0.7,4.6,2,5.8c1.3,1.2,3.1,1.9,5.4,1.9c0.2,0,0.4,0,0.7,0
			c0.3,0,0.5,0,0.7,0v-4.4h-4.4v-4.2h9.8V36.5z"/>
		<path class="st1" d="M151.7,37.4l7.7-22.3h5.8l7.7,22.3h-5.8l-4.9-15.1l-4.9,15.1c0,0-3.2,10.7-10.7,9.1
			C149.2,44.4,151.7,37.4,151.7,37.4"/>
	</g>
	<polygon class="st1" points="139.8,37.8 139.8,19.6 133.2,19.6 133.2,15.3 152,15.3 152,19.6 145.4,19.6 145.4,37.8 	"/>
	<polygon class="st1" points="130.9,37.8 125.5,37.8 116.9,22.1 116.9,37.8 111.7,37.8 111.7,15.3 118.6,15.3 125.8,28.2 
		125.8,15.3 130.9,15.3 	"/>
	<g>
		<path class="st1" d="M88.1,37.4l7.7-22.3h5.8l7.7,22.3h-5.8l-4.9-15.1l-4.9,15.1c0,0-3.2,10.7-10.7,9.1
			C85.6,44.4,88.1,37.4,88.1,37.4"/>
	</g>
</g>
</svg>
